<svg width="352" height="87" viewBox="0 0 352 87" fill="none" xmlns="http://www.w3.org/2000/svg">
<path d="M92.7495 22.9697C92.4735 21.4697 91.9735 20.0426 91.2495 18.6937C90.5308 17.3447 89.6193 16.1364 88.5204 15.0687C87.4215 14.0062 86.1871 13.1312 84.8173 12.4542C83.4476 11.7719 82.0049 11.3188 80.4945 11.0896C80.1559 10.5479 79.7757 10.0375 79.3539 9.56358C78.932 9.08442 78.4685 8.64172 77.9737 8.24068C77.4789 7.83965 76.9529 7.48028 76.4008 7.16778C75.8435 6.85008 75.2706 6.58446 74.6716 6.36571C74.0727 6.14175 73.4581 5.97509 72.8331 5.8553C72.2081 5.73551 71.5727 5.6678 70.9373 5.65738C70.2967 5.64176 69.6613 5.67822 69.0311 5.77197C68.4009 5.86051 67.7811 6.00113 67.1717 6.19384C66.1457 4.71469 64.8697 3.49075 63.3437 2.53243C61.8176 1.5689 60.1666 0.943905 58.3854 0.65745C56.9479 0.516827 55.526 0.620993 54.1198 0.975155C52.7188 1.32411 51.4167 1.90223 50.2136 2.70951C49.698 2.2668 49.1459 1.87618 48.5626 1.53244C47.9741 1.1939 47.3595 0.907448 46.7241 0.673075C46.0835 0.443913 45.4324 0.272038 44.7606 0.157457C44.0939 0.0480824 43.4168 -0.00920686 42.7398 0.001209C42.0627 0.0116262 41.3908 0.0793333 40.7242 0.20954C40.0575 0.339746 39.4065 0.527245 38.7763 0.772032C38.1409 1.02203 37.5367 1.32411 36.9586 1.67827C36.3805 2.03243 35.8388 2.43868 35.3336 2.8918C34.042 2.61055 32.7399 2.52201 31.4274 2.62617C30.1097 2.73034 28.8389 3.01679 27.6045 3.49595C26.3754 3.97512 25.24 4.62094 24.2035 5.43343C23.1619 6.24592 22.2609 7.19382 21.5005 8.27193C19.5942 8.29798 17.7661 8.6938 16.0162 9.449C14.261 10.2042 12.7245 11.2719 11.3964 12.6417C10.3652 13.8396 9.55791 15.1729 8.96938 16.6416C8.38605 18.1103 8.05793 19.6364 7.98502 21.2145C6.30795 21.6936 4.81839 22.5113 3.51112 23.6624C2.20384 24.8134 1.20906 26.1936 0.526781 27.7925C0.0372047 29.4487 -0.108627 31.131 0.0788702 32.8393C0.271576 34.5528 0.787194 36.1622 1.62572 37.6674C0.89136 39.5944 0.516365 41.5944 0.505948 43.6569C0.495532 45.7246 0.849694 47.7245 1.56323 49.662C2.33926 51.313 3.40174 52.7557 4.75589 53.9797C6.11004 55.2036 7.64648 56.1255 9.36521 56.7296C9.50583 58.9796 9.91207 61.1827 10.5944 63.3285C13.3808 72.3544 22.3129 74.6409 28.1775 74.6409H28.3337L27.3077 82.5887C27.2764 82.8126 27.292 83.0314 27.3545 83.2501C27.4118 83.4689 27.5108 83.6668 27.6514 83.8491C27.7868 84.0262 27.9535 84.172 28.1514 84.2866C28.3493 84.4011 28.5577 84.4689 28.7816 84.5001C28.8597 84.5001 28.9274 84.5001 29.0056 84.5001C29.4379 84.5001 29.8181 84.3595 30.141 84.0782C30.4691 83.7918 30.6566 83.4376 30.7139 83.0053L31.9847 73.0211C32.0576 72.469 31.8962 72.0003 31.5055 71.6044C31.1201 71.2034 30.6462 71.0367 30.0941 71.1044C29.5576 71.1669 17.0005 72.4742 13.8547 62.3129C10.9016 52.7505 13.9276 44.9433 21.9432 41.4277C22.1619 41.3444 22.3494 41.2194 22.5109 41.058C22.6775 40.8965 22.8025 40.7038 22.8911 40.4903C22.9796 40.2767 23.0213 40.058 23.0161 39.8236C23.0161 39.5944 22.9692 39.3705 22.8754 39.1622C22.7817 38.9486 22.6515 38.7663 22.4848 38.6049C22.3182 38.4434 22.1255 38.3236 21.9067 38.2455C21.6932 38.1622 21.4692 38.1309 21.24 38.1361C21.0057 38.1465 20.7869 38.2038 20.5786 38.3028C19.0786 38.9226 17.688 39.7351 16.4016 40.7298C15.1203 41.7246 13.9901 42.8704 13.0162 44.1673C12.037 45.4642 11.2506 46.8704 10.6516 48.3808C10.0475 49.886 9.65687 51.4485 9.47458 53.063C7.31836 52.0578 5.73504 50.4797 4.72985 48.3235C4.16736 46.6777 3.91736 44.985 3.97465 43.2454C4.03715 41.5059 4.40173 39.834 5.06839 38.2299C5.30797 37.6726 5.27151 37.1413 4.95381 36.6257C4.24548 35.4799 3.78715 34.2456 3.57362 32.9174C3.36528 31.5893 3.41737 30.2716 3.73507 28.9644C4.36527 27.6883 5.25068 26.6207 6.38608 25.7613C7.52148 24.9019 8.7923 24.3446 10.1933 24.0842C10.5735 23.9644 10.8756 23.7457 11.0996 23.4176C11.3235 23.0894 11.4225 22.7301 11.3964 22.3342C11.36 20.9801 11.5579 19.6676 12.0006 18.3864C12.4381 17.1104 13.0891 15.9489 13.9485 14.9073C15.0839 13.7927 16.3964 12.949 17.8807 12.3813C19.3651 11.8083 20.9015 11.5531 22.49 11.6156C23.0994 11.5948 23.5629 11.3292 23.8858 10.8136C24.464 9.87608 25.1723 9.05317 26.016 8.34485C26.8598 7.63653 27.7972 7.08445 28.8181 6.67821C29.8441 6.27196 30.9066 6.0428 32.0055 5.9803C33.1045 5.92301 34.1878 6.03759 35.2503 6.32925C42.1148 8.53235 40.6929 16.3135 40.6304 16.6468C40.5835 16.8708 40.5835 17.0895 40.6252 17.3135C40.6669 17.5374 40.7502 17.7406 40.8752 17.9333C41.0002 18.1208 41.1565 18.277 41.3439 18.4072C41.5367 18.5322 41.7398 18.6208 41.9637 18.6624C42.1825 18.7093 42.4064 18.7093 42.6304 18.6676C42.8491 18.626 43.0575 18.5374 43.245 18.4124C43.4377 18.2874 43.5939 18.1312 43.7189 17.9437C43.8491 17.7562 43.9325 17.5531 43.9793 17.3291C44.2502 16.126 44.3387 14.9073 44.2502 13.6729C44.1616 12.4385 43.896 11.2459 43.4585 10.0948C43.0158 8.93859 42.4168 7.8709 41.6616 6.89174C40.9065 5.9178 40.0263 5.06885 39.0211 4.35011C39.8283 3.94387 40.6773 3.67304 41.5783 3.53762C42.4741 3.40741 43.3648 3.41783 44.2606 3.57408C45.1512 3.73033 45.9949 4.02199 46.7918 4.44907C47.5939 4.87614 48.3022 5.42301 48.922 6.07925C49.0782 6.23029 49.2553 6.35008 49.4532 6.43342C49.6511 6.52196 49.8543 6.56362 50.073 6.57404C50.2865 6.57925 50.4949 6.548 50.698 6.47508C50.9011 6.40217 51.0834 6.298 51.2449 6.15217C52.198 5.38135 53.2552 4.81364 54.4271 4.44907C55.5938 4.08449 56.7865 3.94907 58.0104 4.03761C59.5104 4.35011 60.8801 4.95427 62.1197 5.8553C63.3645 6.75633 64.3645 7.86569 65.1249 9.19901C65.354 9.52713 65.6613 9.74587 66.0467 9.86045C66.4269 9.97504 66.8072 9.95941 67.1769 9.80316C67.6561 9.60525 68.1509 9.4438 68.6561 9.33442C69.1665 9.21984 69.6821 9.15734 70.2029 9.13651C70.7238 9.12088 71.2394 9.15213 71.755 9.22505C72.2706 9.30317 72.7758 9.42817 73.2654 9.59483C73.7602 9.7615 74.2341 9.97504 74.6873 10.2302C75.1404 10.4854 75.5675 10.7823 75.9633 11.1156C76.3643 11.449 76.7341 11.8136 77.0622 12.2146C77.3956 12.6156 77.6924 13.0427 77.9476 13.4958C78.2341 14.0375 78.6872 14.3291 79.2966 14.3864C79.932 14.4437 80.5622 14.5531 81.182 14.7198C81.7965 14.8812 82.4007 15.1 82.984 15.3656C83.5621 15.6312 84.1194 15.9437 84.6507 16.3031C85.1819 16.6624 85.6767 17.0635 86.1402 17.5062C86.5985 17.9489 87.0204 18.4281 87.4058 18.9385C87.786 19.4541 88.1194 19.9957 88.411 20.5686C88.6975 21.1416 88.9371 21.7301 89.1298 22.3447C89.3173 22.954 89.4579 23.579 89.5412 24.2144C89.9006 25.6311 89.9058 27.0529 89.5568 28.4748C89.2027 29.8966 88.536 31.1518 87.5517 32.2404C86.4944 32.9591 85.3277 33.4018 84.0517 33.5633C82.7809 33.7299 81.5413 33.5945 80.333 33.1622C80.2341 32.782 80.0882 32.4122 79.9007 32.0633C79.7132 31.7091 79.4893 31.3862 79.2289 31.0893C78.9632 30.7873 78.6716 30.5269 78.3487 30.2977C78.0258 30.0685 77.6768 29.8758 77.307 29.73C76.9372 29.5789 76.557 29.4748 76.1664 29.4175C75.7706 29.3602 75.38 29.3446 74.9841 29.3758C74.5883 29.4123 74.1977 29.4904 73.8227 29.6154C73.4425 29.7352 73.0883 29.9019 72.7498 30.1102C72.406 30.3185 72.0988 30.5633 71.8175 30.8393C71.5363 31.1206 71.2863 31.4279 71.0779 31.7664C70.8696 32.105 70.7029 32.4643 70.5779 32.8393C70.4477 33.2143 70.3696 33.6049 70.3331 34.0008C70.2967 34.3966 70.3071 34.7872 70.3644 35.183C70.4217 35.5737 70.5258 35.9591 70.6717 36.3289C70.8175 36.6934 71.005 37.0424 71.2342 37.3705C71.4581 37.6934 71.7238 37.9903 72.0154 38.2559C72.3123 38.5215 72.6352 38.7455 72.9894 38.933C73.3383 39.1205 73.7029 39.2663 74.0883 39.3705C74.4737 39.4746 74.8643 39.5319 75.2602 39.5424C75.656 39.5528 76.0518 39.5215 76.4372 39.4382C76.8279 39.3601 77.2028 39.2351 77.5622 39.0684C77.9216 38.8965 78.2601 38.6882 78.5674 38.4434C78.8799 38.1986 79.1612 37.9174 79.4059 37.6049C79.6507 37.2924 79.8591 36.9591 80.0257 36.5945C81.0934 36.8549 82.1767 36.9955 83.2757 37.0111C83.8903 37.0476 84.51 37.0216 85.1246 36.933C85.734 36.8393 86.3329 36.6934 86.9163 36.4799C87.4996 36.2716 88.0569 36.0059 88.5881 35.683C89.1141 35.3601 89.6089 34.9903 90.062 34.5685C90.5152 34.1466 90.9266 33.6831 91.286 33.1779C91.6454 32.6779 91.9526 32.1414 92.2078 31.5737C92.4631 31.0112 92.6558 30.4227 92.7912 29.8185C92.9266 29.2144 92.9995 28.605 93.0099 27.9852C94.1557 29.8394 94.9266 31.8393 95.3172 33.9851C95.713 36.1309 95.7026 38.2767 95.2911 40.4173C95.0307 42.2923 94.4214 44.0475 93.4578 45.6829C92.4995 47.3131 91.2652 48.7037 89.7548 49.8443C89.1037 50.3026 88.3902 50.6047 87.609 50.7558C86.8277 50.9068 86.0517 50.886 85.2809 50.6985C81.6351 49.9745 78.083 50.2974 74.63 51.662C74.5883 50.2037 74.3331 48.787 73.8748 47.4016C73.4112 46.0162 72.7602 44.7298 71.9217 43.5371C71.0831 42.3444 70.0884 41.3028 68.9425 40.4017C67.7915 39.5007 66.5415 38.7872 65.1822 38.2559C64.9686 38.1882 64.7499 38.157 64.5259 38.1726C64.302 38.1882 64.0884 38.2507 63.8853 38.3497C63.6822 38.4486 63.5103 38.584 63.3593 38.7507C63.2134 38.9226 63.1041 39.1101 63.0312 39.3236C62.9582 39.5371 62.927 39.7559 62.9426 39.9799C62.953 40.2038 63.0103 40.4173 63.1093 40.6205C63.2082 40.8236 63.3384 41.0007 63.5051 41.1517C63.6718 41.2975 63.8645 41.4121 64.0728 41.4902C64.7343 41.7455 65.3645 42.0579 65.9634 42.4277C66.5624 42.8027 67.1249 43.2246 67.6457 43.7038C68.1665 44.1777 68.6405 44.6985 69.0623 45.261C69.4894 45.8235 69.8592 46.4225 70.1717 47.0527C70.4842 47.6881 70.7394 48.3443 70.9321 49.0214C71.1248 49.6985 71.255 50.3912 71.3175 51.0943C71.38 51.7974 71.38 52.5005 71.3175 53.2036C71.2498 53.9068 71.1196 54.5995 70.9269 55.2765C69.5623 62.1983 64.3593 62.9535 56.5625 63.3233C53.9584 63.3285 51.3907 63.6462 48.8647 64.2764C40.6096 66.8285 36.7711 78.5887 36.9482 84.4428C36.9534 84.6668 37.0003 84.8803 37.0888 85.0834C37.1773 85.2866 37.3023 85.4636 37.4638 85.6199C37.62 85.7761 37.8075 85.8959 38.0107 85.9792C38.219 86.0626 38.4325 86.1042 38.6513 86.1042H38.7034C38.9325 86.099 39.1461 86.047 39.3544 85.9532C39.5627 85.8595 39.7398 85.7345 39.896 85.5678C40.0523 85.4011 40.1721 85.2136 40.2502 85.0053C40.3335 84.7918 40.37 84.573 40.3596 84.3439C40.219 79.6825 43.4533 69.5263 49.8699 67.5368C52.1251 67.0055 54.4063 66.7347 56.7239 66.7347C63.6666 66.391 72.3071 66.0003 74.2758 55.9328C74.3071 55.7661 74.3175 55.6151 74.3435 55.4588C77.557 53.9015 80.9268 53.4172 84.4475 54.0109C85.6819 54.3182 86.9215 54.3547 88.1714 54.1307C89.4214 53.9015 90.5725 53.4328 91.6193 52.7193C93.5255 51.3182 95.088 49.6047 96.3068 47.5735C97.5255 45.5475 98.3119 43.3652 98.6557 41.0215C99.9577 33.657 97.3745 25.9957 92.7495 22.9697ZM75.4268 36.1153C75.2029 36.1153 74.9893 36.0737 74.781 35.9903C74.5779 35.9018 74.3956 35.782 74.2341 35.6257C74.0779 35.4643 73.9581 35.282 73.8696 35.0789C73.7862 34.8705 73.7394 34.657 73.7394 34.433C73.7394 34.2091 73.781 33.9956 73.8696 33.7872C73.9529 33.5841 74.0727 33.4018 74.2341 33.2404C74.3904 33.0841 74.5727 32.9643 74.781 32.8758C74.9841 32.7924 75.2029 32.7456 75.4216 32.7456C75.6456 32.7456 75.8643 32.7924 76.0674 32.8758C76.2758 32.9591 76.4581 33.0841 76.6143 33.2404C76.7758 33.3966 76.8956 33.5789 76.9789 33.7872C77.0674 33.9956 77.1091 34.2091 77.1091 34.433C77.1091 34.6518 77.0674 34.8705 76.9789 35.0737C76.8956 35.282 76.7758 35.4643 76.6143 35.6205C76.4581 35.7768 76.2758 35.9018 76.0727 35.9851C75.8643 36.0737 75.6508 36.1153 75.4268 36.1153Z" fill="white"/>
<path d="M20.5834 54.891C20.4897 54.6879 20.3647 54.5056 20.198 54.3494C20.0313 54.1983 19.8438 54.0785 19.6303 54.0004C19.4167 53.9223 19.198 53.8858 18.974 53.891C18.7449 53.9015 18.5313 53.9483 18.323 54.0421C18.1199 54.1358 17.9376 54.266 17.7814 54.4327C17.6303 54.5942 17.5105 54.7869 17.4324 54.9952C17.3491 55.2087 17.3126 55.4275 17.323 55.6566C17.3282 55.8806 17.3803 56.0994 17.4741 56.3025C18.0626 57.417 18.797 58.4222 19.6667 59.3337C20.5365 60.2399 21.5157 61.016 22.599 61.6514C23.6875 62.2868 24.8385 62.7659 26.0573 63.0836C27.2708 63.4013 28.5104 63.5472 29.7708 63.5211C32.7239 63.443 35.5624 62.8232 38.2759 61.6514C38.5467 61.9378 38.8436 62.193 39.1665 62.4066C39.4946 62.6253 39.8384 62.8024 40.2081 62.943C40.5727 63.0784 40.9529 63.1722 41.3383 63.2243C41.729 63.2711 42.1196 63.2763 42.5102 63.2347C42.8956 63.1982 43.2758 63.1149 43.6508 62.9847C44.0206 62.8545 44.3695 62.6878 44.7029 62.4795C45.031 62.2659 45.3331 62.0211 45.6091 61.7451C45.8851 61.4639 46.1247 61.1566 46.3278 60.8232C46.531 60.4847 46.6924 60.1305 46.8122 59.7608C46.932 59.3858 47.0101 59.0056 47.0466 58.6149C47.0778 58.2243 47.0674 57.8337 47.0101 57.4483C46.9528 57.0577 46.8487 56.6827 46.7081 56.3181C46.5622 55.9535 46.3747 55.6098 46.156 55.2921C45.932 54.9692 45.6716 54.6775 45.3799 54.4171C45.0883 54.1515 44.7706 53.9275 44.4268 53.74C44.0831 53.5525 43.7237 53.4015 43.3487 53.2973C42.9685 53.1931 42.5831 53.1306 42.1925 53.115C41.8019 53.0994 41.4112 53.1306 41.0258 53.2036C40.6456 53.2765 40.2706 53.3963 39.9165 53.5577C39.5571 53.714 39.2238 53.9119 38.9113 54.1515C38.5988 54.391 38.3175 54.6567 38.0675 54.9639C37.8175 55.266 37.6092 55.5889 37.4373 55.9431C37.2603 56.2921 37.1301 56.6618 37.0415 57.042C36.953 57.4222 36.9113 57.8129 36.9113 58.2035C36.9113 58.3077 36.9373 58.4066 36.9426 58.5108C24.75 63.3649 20.7553 55.2608 20.5834 54.891ZM42.0206 56.5212C42.2446 56.5212 42.4581 56.5629 42.6664 56.6514C42.8696 56.7348 43.0519 56.8598 43.2133 57.016C43.3696 57.1723 43.4893 57.3545 43.5779 57.5629C43.6612 57.7712 43.7029 57.9847 43.7029 58.2087C43.7029 58.4327 43.6612 58.6462 43.5779 58.8545C43.4893 59.0576 43.3696 59.2399 43.2081 59.3962C43.0519 59.5576 42.8696 59.6774 42.6612 59.7608C42.4581 59.8493 42.2446 59.891 42.0206 59.891C41.7967 59.891 41.5779 59.8493 41.3748 59.7608C41.1665 59.6774 40.9842 59.5524 40.8279 59.3962C40.6717 59.2347 40.5467 59.0524 40.4633 58.8493C40.38 58.641 40.3383 58.4274 40.3383 58.2035C40.3383 57.9795 40.38 57.766 40.4686 57.5577C40.5519 57.3545 40.6717 57.1723 40.8331 57.016C40.9894 56.8545 41.1717 56.7348 41.3748 56.6514C41.5831 56.5629 41.7967 56.5212 42.0206 56.5212Z" fill="white"/>
<path d="M25.3543 29.7091C25.3335 29.4851 25.271 29.2716 25.1616 29.0685C25.0574 28.8705 24.9168 28.6935 24.7397 28.5528C24.5678 28.407 24.3699 28.2976 24.1564 28.2299C23.9376 28.1622 23.7137 28.1414 23.4897 28.1622C23.2606 28.1831 23.047 28.2456 22.8491 28.3497C22.646 28.4591 22.4741 28.5997 22.3283 28.7716C22.1825 28.9487 22.0783 29.1414 22.0106 29.3601C21.9429 29.5789 21.9168 29.7976 21.9377 30.0268C22.172 31.7038 22.7085 33.2767 23.547 34.7507C24.3856 36.2194 25.4637 37.485 26.7866 38.5475C28.3647 39.7142 30.0886 40.5839 31.9636 41.1516C33.8438 41.7245 35.7604 41.9641 37.7187 41.8756C39.1666 41.8704 40.6093 41.7662 42.0468 41.5683C43.2082 41.5006 44.354 41.3235 45.479 41.0318C46.604 40.735 47.6925 40.3339 48.7394 39.8287C49.7863 39.3183 50.7706 38.709 51.6977 38.0058C52.6248 37.2975 53.4685 36.5111 54.2393 35.6361C55.0049 34.7611 55.682 33.8184 56.2601 32.808C56.8435 31.8028 57.3174 30.7455 57.6872 29.6414C58.057 28.5372 58.3174 27.407 58.4632 26.256C58.6091 25.0998 58.6351 23.9435 58.5518 22.7821C58.9163 22.6154 59.2601 22.4123 59.5778 22.1675C59.8903 21.9175 60.1767 21.6415 60.4267 21.329C60.6819 21.0165 60.8903 20.6832 61.0621 20.3186C61.2392 19.9592 61.3642 19.579 61.4476 19.1884C61.5361 18.7978 61.5726 18.4019 61.5621 18.0009C61.5517 17.5999 61.4996 17.204 61.3955 16.8186C61.2965 16.428 61.1507 16.0582 60.9632 15.7041C60.7757 15.3499 60.5465 15.027 60.2809 14.7249C60.0153 14.4228 59.7236 14.1572 59.3955 13.928C59.0674 13.6937 58.7184 13.5062 58.3434 13.3551C57.9736 13.2093 57.5882 13.1051 57.1924 13.0426C56.7966 12.9853 56.3955 12.9749 55.9997 13.0114C55.5987 13.0426 55.2081 13.126 54.8279 13.251C54.4477 13.376 54.0883 13.5426 53.7445 13.7562C53.406 13.9645 53.0935 14.2145 52.8123 14.4957C52.5258 14.7822 52.281 15.0947 52.0727 15.4332C51.8644 15.777 51.6977 16.1363 51.5727 16.5218C51.4477 16.902 51.3696 17.2926 51.3331 17.6884C51.3019 18.0894 51.3175 18.4853 51.3748 18.8811C51.4373 19.2769 51.5414 19.6623 51.6925 20.0373C51.8435 20.4071 52.031 20.7561 52.2654 21.0842C52.4998 21.4071 52.7654 21.704 53.0675 21.9696C53.3695 22.23 53.6977 22.4592 54.0518 22.6467C54.406 22.829 54.7758 22.9748 55.1664 23.0737C55.2758 26.23 54.6039 36.3965 41.578 38.1933C39.4114 38.6777 37.2343 38.7246 35.0469 38.3288C32.8594 37.9329 30.8386 37.1256 28.9792 35.9121C28.0105 35.1361 27.2136 34.2142 26.5886 33.1465C25.9637 32.0788 25.5522 30.933 25.3543 29.7091ZM56.432 16.4645C56.656 16.4645 56.8747 16.5061 57.0778 16.5947C57.2862 16.678 57.4684 16.803 57.6247 16.9592C57.7809 17.1155 57.9059 17.2978 57.9893 17.5061C58.0778 17.7144 58.1195 17.928 58.1195 18.1519C58.1195 18.3759 58.0778 18.5894 57.9893 18.7978C57.9059 19.0009 57.7809 19.1832 57.6247 19.3394C57.4632 19.5009 57.2809 19.6207 57.0778 19.704C56.8695 19.7925 56.656 19.8342 56.432 19.8342C56.208 19.8342 55.9945 19.7925 55.7862 19.704C55.5831 19.6207 55.4008 19.4957 55.2393 19.3394C55.0831 19.178 54.9633 18.9957 54.8799 18.7926C54.7914 18.5842 54.7497 18.3707 54.7497 18.1467C54.7497 17.9228 54.7966 17.7092 54.8799 17.5009C54.9685 17.2926 55.0883 17.1103 55.2497 16.954C55.406 16.7978 55.5883 16.6728 55.7966 16.5895C56.0049 16.5061 56.2185 16.4645 56.4424 16.4645H56.432Z" fill="white"/>
<path d="M78.3953 27.3968C79.7599 27.3864 81.0828 27.1572 82.3693 26.7145C82.5932 26.6468 82.7963 26.5374 82.9734 26.3916C83.1557 26.2458 83.2963 26.0687 83.4057 25.8604C83.5099 25.6573 83.5724 25.4385 83.5932 25.2041C83.6088 24.975 83.5828 24.751 83.5047 24.5271C83.4317 24.3083 83.3172 24.1104 83.1661 23.9385C83.0099 23.7667 82.8276 23.6312 82.6192 23.5323C82.4057 23.4333 82.187 23.376 81.9578 23.3656C81.7234 23.3604 81.4995 23.3969 81.2807 23.4802C73.6975 26.0322 69.0048 17.949 68.8069 17.6053C68.6976 17.4074 68.5517 17.2407 68.3746 17.1053C68.1924 16.9647 67.9944 16.8657 67.7809 16.8084C67.5622 16.7511 67.3382 16.7355 67.1142 16.7615C66.8955 16.7876 66.682 16.8605 66.4893 16.9699C66.2913 17.0792 66.1247 17.2251 65.9841 17.4022C65.8434 17.5792 65.7445 17.7771 65.6872 17.9959C65.6247 18.2094 65.6091 18.4334 65.6351 18.6573C65.6611 18.8813 65.7288 19.0896 65.8382 19.2875C66.458 20.4334 67.2132 21.4906 68.1038 22.449C68.9892 23.4073 69.984 24.2406 71.0829 24.9489C72.1767 25.6573 73.3433 26.2145 74.5829 26.6312C75.8225 27.0479 77.0933 27.3031 78.3953 27.3968Z" fill="white"/>
<path d="M30.5154 14.1675C30.2914 14.1362 30.0727 14.1519 29.8539 14.2092C29.6352 14.2665 29.4373 14.3654 29.255 14.506C29.0779 14.6414 28.9269 14.8081 28.8175 15.006C28.7029 15.1987 28.63 15.4123 28.5987 15.6362C28.5206 16.23 28.4894 16.8289 28.5102 17.4279C28.531 18.0268 28.5987 18.6206 28.7237 19.2039C28.8487 19.7924 29.0206 20.3653 29.2394 20.9226C29.4633 21.4799 29.7289 22.0163 30.0466 22.5268C30.3591 23.0372 30.7133 23.5163 31.1091 23.9694C31.5102 24.4174 31.9424 24.8288 32.406 25.2038C32.8747 25.5788 33.3747 25.9121 33.9008 26.1986C34.4268 26.4903 34.9684 26.7298 35.5361 26.9277C35.5778 27.3184 35.6559 27.7038 35.7861 28.0788C35.9111 28.4538 36.083 28.8079 36.2913 29.1413C36.5049 29.4746 36.7497 29.7819 37.0309 30.0579C37.3122 30.3339 37.6247 30.5787 37.9632 30.7819C38.3017 30.985 38.6559 31.1464 39.0361 31.2714C39.4111 31.3912 39.7965 31.4641 40.1871 31.4954C40.583 31.5266 40.9736 31.511 41.3642 31.4485C41.7548 31.386 42.135 31.2819 42.4996 31.1308C42.8642 30.985 43.2079 30.7923 43.5308 30.5631C43.8537 30.334 44.1402 30.0683 44.4006 29.7715C44.661 29.4694 44.885 29.1465 45.0673 28.7975C45.2496 28.4486 45.3902 28.0788 45.4891 27.6986C45.5881 27.3132 45.6402 26.9277 45.6454 26.5319C45.6506 26.1361 45.6141 25.7455 45.5256 25.3601C45.4423 24.9746 45.3121 24.5996 45.1454 24.2455C44.9735 23.8913 44.76 23.558 44.51 23.2507C44.26 22.9434 43.9787 22.6726 43.6662 22.4278C43.3538 22.1882 43.0152 21.9851 42.6558 21.8236C42.2965 21.6622 41.9215 21.5476 41.5309 21.4695C41.1454 21.3966 40.7548 21.3705 40.359 21.3862C39.9632 21.4018 39.5778 21.4643 39.1976 21.5736C38.8174 21.683 38.4528 21.8341 38.109 22.0268C37.7653 22.2195 37.4476 22.4486 37.1559 22.7143C36.8643 22.9851 36.609 23.282 36.3851 23.6049C35.6559 23.3132 34.9893 22.907 34.3955 22.3913C33.7966 21.8809 33.3018 21.282 32.9008 20.5997C32.5049 19.9226 32.2289 19.1935 32.0727 18.4226C31.9164 17.6518 31.8904 16.8758 31.9893 16.0946C32.0206 15.8654 32.0049 15.6466 31.9477 15.4227C31.8904 15.2039 31.7914 15.006 31.656 14.8237C31.5154 14.6414 31.3487 14.4956 31.1508 14.381C30.9529 14.2665 30.7445 14.1987 30.5154 14.1675ZM40.5882 24.7976C40.8121 24.7976 41.0257 24.8392 41.234 24.9226C41.4423 25.0059 41.6246 25.1309 41.7809 25.2871C41.9423 25.4434 42.0621 25.6257 42.1454 25.834C42.234 26.0371 42.2756 26.2559 42.2756 26.4798C42.2756 26.6986 42.234 26.9173 42.1506 27.1205C42.0621 27.3288 41.9423 27.5111 41.7861 27.6673C41.6246 27.8288 41.4475 27.9486 41.2392 28.0371C41.0309 28.1204 40.8173 28.1621 40.5934 28.1621C40.3694 28.1621 40.1559 28.1204 39.9475 28.0371C39.7444 27.9486 39.5621 27.8288 39.4007 27.6725C39.2444 27.5111 39.1246 27.3288 39.0361 27.1257C38.9528 26.9173 38.9111 26.7038 38.9111 26.4798C38.9111 26.2559 38.9528 26.0423 39.0413 25.8392C39.1246 25.6309 39.2444 25.4486 39.4007 25.2923C39.5621 25.1361 39.7444 25.0111 39.9475 24.9278C40.1507 24.8392 40.3694 24.7976 40.5882 24.7976Z" fill="white"/>
<path d="M60.7765 53.1045C61.4536 53.1045 62.1047 52.9743 62.7296 52.7138C63.3546 52.4586 63.9015 52.0888 64.3807 51.6097C64.8598 51.1305 65.2296 50.5785 65.49 49.9535C65.7452 49.3285 65.8754 48.6826 65.8754 48.0056C65.8754 47.3285 65.7452 46.6775 65.49 46.0525C65.2296 45.4275 64.8598 44.8754 64.3807 44.3962C63.9015 43.9223 63.3546 43.5525 62.7296 43.2921C62.1047 43.0317 61.4536 42.9067 60.7765 42.9067C60.0422 42.9067 59.3443 43.0577 58.6828 43.365C58.0162 43.6671 57.4433 44.0994 56.9641 44.6514C56.4485 44.4067 55.912 44.2035 55.3599 44.0525C54.8079 43.9015 54.2506 43.7973 53.6777 43.74C53.11 43.6879 52.5371 43.6827 51.9694 43.7244C51.3965 43.7712 50.834 43.865 50.2819 44.0056C49.7246 44.1515 49.1882 44.3389 48.6673 44.5733C48.1465 44.8129 47.6465 45.0941 47.1778 45.4171C46.7038 45.74 46.2611 46.0993 45.8549 46.5004C45.4434 46.9014 45.0736 47.3337 44.7351 47.7972C44.6049 47.9795 44.5163 48.1826 44.4643 48.4014C44.4122 48.6254 44.407 48.8441 44.4434 49.0681C44.4799 49.292 44.558 49.5003 44.6778 49.693C44.7976 49.8858 44.9486 50.0472 45.1361 50.1774C45.3184 50.3076 45.5215 50.4014 45.7403 50.4535C45.9642 50.5055 46.183 50.5107 46.4069 50.4743C46.6309 50.4378 46.8392 50.3597 47.0319 50.2399C47.2246 50.1201 47.3861 49.9691 47.5163 49.7816C47.9694 49.1618 48.5215 48.6358 49.1621 48.2087C49.8027 47.7816 50.4954 47.4795 51.2454 47.2972C51.9954 47.1202 52.7558 47.0733 53.5214 47.167C54.2818 47.2556 55.011 47.4743 55.6985 47.8233C55.6985 47.8858 55.6777 47.9379 55.6777 48.0004C55.6777 48.6774 55.8131 49.3285 56.0683 49.9483C56.3287 50.5732 56.6985 51.1253 57.1776 51.5993C57.6516 52.0784 58.2037 52.4482 58.8287 52.7086C59.4536 52.969 60.0995 53.0993 60.7765 53.1045ZM60.7765 46.3181C61.0005 46.3181 61.214 46.365 61.4224 46.4483C61.6255 46.5316 61.8078 46.6566 61.9692 46.8129C62.1255 46.9743 62.2453 47.1566 62.3338 47.3597C62.4171 47.5681 62.4588 47.7816 62.4588 48.0056C62.4588 48.2295 62.4171 48.4431 62.3338 48.6514C62.2453 48.8545 62.1255 49.0368 61.964 49.1983C61.8078 49.3545 61.6255 49.4743 61.4172 49.5628C61.214 49.6462 60.9953 49.6878 60.7765 49.6878C60.5526 49.6878 60.3338 49.6462 60.1307 49.5576C59.9224 49.4743 59.7401 49.3493 59.5839 49.1931C59.4276 49.0368 59.3026 48.8545 59.2193 48.6462C59.1359 48.4379 59.0943 48.2243 59.0943 48.0004C59.0943 47.7764 59.1359 47.5629 59.2245 47.3597C59.3078 47.1514 59.4328 46.9691 59.5891 46.8129C59.7453 46.6566 59.9276 46.5368 60.1359 46.4483C60.3391 46.365 60.5526 46.3233 60.7765 46.3181Z" fill="white"/>
<path d="M139.008 18.304H142.3V18.6165C142.217 18.6165 142.061 18.7779 141.842 19.0956C141.618 19.4029 141.508 20.1321 141.508 21.2831V39.6578C141.508 40.7828 141.618 41.512 141.842 41.8453C142.061 42.1682 142.217 42.3245 142.3 42.3245V42.637H138.217V42.3245C138.326 42.3245 138.488 42.1682 138.696 41.8453C138.904 41.512 139.008 40.7828 139.008 39.6578V19.0331L128.613 40.5953L129.592 42.637H126.842L116.759 21.6581V36.9495C116.759 38.5745 116.91 39.8818 117.217 40.8662C117.535 41.8401 117.821 42.3245 118.071 42.3245V42.637H115.134V42.3245C115.384 42.3245 115.66 41.8401 115.967 40.8662C116.285 39.8818 116.446 38.5745 116.446 36.9495V21.0331L115.134 18.304H117.863L128.446 40.2412L139.008 18.304Z" fill="white"/>
<path d="M159.571 38.9287L159.279 38.0954C158.93 37.085 158.436 36.1163 157.8 35.1996C157.175 34.2726 156.41 33.4913 155.509 32.8663C154.602 32.2413 153.592 31.8768 152.467 31.7622C151.842 31.7101 151.165 31.783 150.446 31.9913C149.738 32.1997 149.248 32.6372 148.988 33.3038L147.3 38.3663C146.368 41.0068 146.373 42.3245 147.321 42.3245V42.637H144.384V42.3245C144.634 42.3245 144.993 42.0433 145.467 41.4704C145.936 40.8871 146.446 39.8194 146.988 38.2621L153.155 20.1998L152.488 18.304H155.134L161.759 37.6163C162.217 38.9079 162.644 40.0225 163.05 40.9496C163.451 41.8662 163.779 42.3245 164.029 42.3245V42.637H159.988V42.3245C160.097 42.3245 160.134 42.0068 160.092 41.3662C160.061 40.7152 159.889 39.9027 159.571 38.9287ZM153.321 20.6998L149.384 32.2622C149.769 31.9028 150.248 31.6736 150.821 31.5747C151.405 31.4653 151.951 31.4288 152.467 31.4705C153.759 31.5955 154.91 32.0434 155.925 32.8038C156.936 33.5538 157.769 34.4653 158.425 35.533L153.321 20.6998Z" fill="white"/>
<path d="M176.029 29.2205L180.945 37.7413C181.706 39.0485 182.367 40.1371 182.925 41.012C183.477 41.887 183.883 42.3245 184.133 42.3245V42.637H180.091V42.3245C180.216 42.3245 180.154 41.9704 179.904 41.262C179.654 40.5433 179.201 39.6267 178.55 38.5121L173.279 29.3872H169.362V39.6579C169.362 40.7829 169.472 41.512 169.696 41.8454C169.914 42.1683 170.076 42.3245 170.175 42.3245V42.637H166.112V42.3245C166.222 42.3245 166.383 42.1683 166.591 41.8454C166.8 41.512 166.904 40.7829 166.904 39.6579V21.2831C166.904 20.1321 166.8 19.403 166.591 19.0957C166.383 18.778 166.222 18.6165 166.112 18.6165V18.304H166.425C167.435 18.278 168.508 18.2103 169.633 18.0957C170.768 17.9863 171.841 17.929 172.841 17.929C175.185 17.929 177.05 18.179 178.425 18.679C179.8 19.1686 180.779 19.8404 181.362 20.6998C181.956 21.5488 182.258 22.5435 182.258 23.6789C182.258 25.0695 181.789 26.2622 180.862 27.2622C179.93 28.2518 178.32 28.9028 176.029 29.2205ZM169.362 18.4082V29.1164H172.841C173.602 29.1164 174.388 29.033 175.196 28.8664C175.998 28.6893 176.758 28.3976 177.466 27.9914C178.175 27.5903 178.742 27.0331 179.175 26.3247C179.617 25.6164 179.841 24.7362 179.841 23.6789C179.841 22.5956 179.617 21.6998 179.175 20.9915C178.742 20.2832 178.175 19.7311 177.466 19.3248C176.758 18.9238 175.998 18.6373 175.196 18.4707C174.388 18.2936 173.602 18.1998 172.841 18.1998C172.3 18.1998 171.737 18.2311 171.154 18.2832C170.571 18.3248 169.972 18.3665 169.362 18.4082Z" fill="white"/>
<path d="M190.296 18.304V18.6165C190.182 18.6165 190.015 18.7779 189.796 19.0956C189.572 19.4029 189.463 20.1321 189.463 21.2831V39.6578C189.463 40.7828 189.572 41.512 189.796 41.8453C190.015 42.1682 190.182 42.3245 190.296 42.3245V42.637H186.213V42.3245C186.322 42.3245 186.484 42.1682 186.692 41.8453C186.9 41.512 187.005 40.7828 187.005 39.6578V21.2831C187.005 20.1321 186.9 19.4029 186.692 19.0956C186.484 18.7779 186.322 18.6165 186.213 18.6165V18.304H190.296Z" fill="white"/>
<path d="M207.568 38.9287L207.276 38.0954C206.928 37.085 206.433 36.1162 205.797 35.1996C205.172 34.2725 204.407 33.4913 203.506 32.8663C202.599 32.2413 201.589 31.8767 200.464 31.7621C199.839 31.71 199.162 31.7829 198.443 31.9913C197.735 32.1996 197.245 32.6371 196.985 33.3038L195.297 38.3662C194.365 41.0068 194.37 42.3245 195.318 42.3245V42.637H192.381V42.3245C192.631 42.3245 192.99 42.0432 193.464 41.4703C193.933 40.887 194.443 39.8193 194.985 38.262L201.152 20.1998L200.485 18.304H203.131L209.756 37.6162C210.214 38.9079 210.641 40.0224 211.047 40.9495C211.448 41.8661 211.776 42.3245 212.026 42.3245V42.637H207.985V42.3245C208.094 42.3245 208.131 42.0068 208.089 41.3662C208.058 40.7151 207.886 39.9026 207.568 38.9287ZM201.318 20.6998L197.381 32.2621C197.766 31.9027 198.245 31.6736 198.818 31.5746C199.402 31.4652 199.948 31.4288 200.464 31.4705C201.756 31.5954 202.907 32.0434 203.922 32.8038C204.933 33.5538 205.766 34.4652 206.422 35.5329L201.318 20.6998Z" fill="white"/>
<path d="M233.736 23.9497V39.1995L236.444 42.637H233.278L216.715 21.5956V36.9495C216.715 38.5745 216.866 39.8818 217.174 40.8662C217.491 41.8401 217.778 42.3245 218.028 42.3245V42.637H215.09V42.3245C215.34 42.3245 215.617 41.8401 215.924 40.8662C216.242 39.8818 216.403 38.5745 216.403 36.9495V21.2206L214.111 18.304H217.257L233.424 38.8245V23.9497C233.424 22.3404 233.262 21.0487 232.944 20.0748C232.637 19.106 232.361 18.6165 232.111 18.6165V18.304H235.049V18.6165C234.799 18.6165 234.512 19.106 234.194 20.0748C233.887 21.0487 233.736 22.3404 233.736 23.9497Z" fill="white"/>
<path d="M253.695 38.9287L253.403 38.0954C253.054 37.085 252.56 36.1162 251.924 35.1996C251.299 34.2725 250.534 33.4913 249.633 32.8663C248.726 32.2413 247.716 31.8767 246.591 31.7621C245.966 31.71 245.289 31.7829 244.57 31.9913C243.862 32.1996 243.372 32.6371 243.112 33.3038L241.424 38.3662C240.492 41.0068 240.497 42.3245 241.445 42.3245V42.637H238.508V42.3245C238.758 42.3245 239.117 42.0432 239.591 41.4703C240.06 40.887 240.57 39.8193 241.112 38.262L247.279 20.1998L246.612 18.304H249.258L255.883 37.6162C256.341 38.9079 256.768 40.0224 257.174 40.9495C257.575 41.8661 257.903 42.3245 258.153 42.3245V42.637H254.112V42.3245C254.221 42.3245 254.258 42.0068 254.216 41.3662C254.185 40.7151 254.013 39.9026 253.695 38.9287ZM247.445 20.6998L243.508 32.2621C243.893 31.9027 244.372 31.6736 244.945 31.5746C245.529 31.4652 246.075 31.4288 246.591 31.4705C247.883 31.5954 249.034 32.0434 250.049 32.8038C251.06 33.5538 251.893 34.4652 252.549 35.5329L247.445 20.6998Z" fill="white"/>
<path d="M277.945 42.9079C276.372 42.9079 274.914 42.6162 273.57 42.0329C272.237 41.4391 271.08 40.7152 270.112 39.8662C269.138 39.0069 268.424 38.1892 267.966 37.4079L268.799 34.3246H269.07C269.07 34.3246 269.205 34.6059 269.487 35.158C269.763 35.7152 270.158 36.4079 270.674 37.2413C271.2 38.0642 271.825 38.8871 272.549 39.7204C273.283 40.5537 274.101 41.2516 275.007 41.8037C275.908 42.361 276.888 42.637 277.945 42.637C278.33 42.637 278.825 42.5693 279.424 42.4287C280.033 42.2933 280.653 42.0537 281.278 41.7204C281.903 41.387 282.424 40.9391 282.841 40.3662C283.257 39.7985 283.466 39.0954 283.466 38.2621C283.466 37.1371 283.122 36.1527 282.445 35.3038C281.763 34.4444 280.903 33.6996 279.861 33.0747C278.83 32.4497 277.789 31.9497 276.737 31.5747C275.528 31.1476 274.393 30.6111 273.341 29.9705C272.299 29.3351 271.445 28.5487 270.778 27.6164C270.122 26.6737 269.799 25.5539 269.799 24.2623C269.799 23.0019 270.117 21.9029 270.757 20.9706C271.393 20.0279 272.242 19.2988 273.299 18.7832C274.367 18.2571 275.528 17.9915 276.778 17.9915C278.346 17.9915 279.643 18.1998 280.674 18.6165C281.7 19.0332 282.549 19.5852 283.216 20.2623C283.882 20.9446 284.434 21.6894 284.882 22.4915L284.049 25.5539H283.736C283.736 25.5539 283.658 25.3143 283.507 24.8248C283.351 24.3404 283.117 23.7362 282.799 23.0123C282.476 22.2779 282.049 21.554 281.507 20.8456C280.966 20.1269 280.304 19.5227 279.528 19.0332C278.747 18.5488 277.83 18.304 276.778 18.304C276.403 18.304 275.903 18.3769 275.278 18.5123C274.653 18.653 274.033 18.8873 273.424 19.2207C272.81 19.554 272.289 20.0071 271.862 20.5748C271.429 21.1477 271.216 21.8456 271.216 22.679C271.216 23.7779 271.554 24.7623 272.237 25.6372C272.929 26.5018 273.789 27.2362 274.82 27.8456C275.862 28.4445 276.914 28.9393 277.987 29.3247C279.179 29.7414 280.304 30.2778 281.361 30.9288C282.414 31.5695 283.268 32.3559 283.924 33.283C284.591 34.1996 284.924 35.3194 284.924 36.6371C284.924 37.9183 284.596 39.0225 283.945 39.9496C283.289 40.8818 282.434 41.611 281.382 42.137C280.341 42.6474 279.195 42.9079 277.945 42.9079Z" fill="white"/>
<path d="M291.074 18.304V18.6165C290.96 18.6165 290.793 18.7779 290.574 19.0956C290.351 19.4029 290.241 20.1321 290.241 21.2831V39.6578C290.241 40.7828 290.351 41.512 290.574 41.8453C290.793 42.1682 290.96 42.3245 291.074 42.3245V42.637H286.991V42.3245C287.101 42.3245 287.262 42.1682 287.47 41.8453C287.679 41.512 287.783 40.7828 287.783 39.6578V21.2831C287.783 20.1321 287.679 19.4029 287.47 19.0956C287.262 18.7779 287.101 18.6165 286.991 18.6165V18.304H291.074Z" fill="white"/>
<path d="M297.244 18.346V18.6585C297.161 18.6585 297.005 18.8148 296.786 19.1168C296.562 19.4241 296.453 20.1585 296.453 21.3251V42.3249H300.369C302.104 42.1478 303.526 41.8353 304.64 41.3874C305.75 40.929 306.833 40.377 307.89 39.7207H308.203V42.679H305.223L304.328 42.6374H293.161V42.3249C293.271 42.3249 293.432 42.1686 293.64 41.8457C293.849 41.5124 293.953 40.7832 293.953 39.6582V21.3251C293.953 20.1585 293.849 19.4241 293.64 19.1168C293.432 18.8148 293.271 18.6585 293.161 18.6585V18.346H297.244Z" fill="white"/>
<path d="M327.03 18.6165V18.304H329.968V18.6165C329.718 18.6165 329.353 18.8977 328.884 19.4498C328.41 20.0071 327.905 21.0695 327.363 22.6372L321.155 40.6995L321.822 42.637H319.218L312.593 23.3247C312.16 22.007 311.739 20.8977 311.322 19.9914C310.905 19.0748 310.556 18.6165 310.28 18.6165V18.304H314.364V18.6165C314.223 18.6165 314.176 18.9446 314.218 19.5956C314.27 20.2362 314.452 21.0279 314.759 21.9706L321.03 40.2412L327.051 22.5747C327.952 19.9393 327.947 18.6165 327.03 18.6165Z" fill="white"/>
<path d="M347.23 38.9287L346.939 38.0954C346.59 37.085 346.095 36.1162 345.459 35.1996C344.834 34.2725 344.069 33.4913 343.168 32.8663C342.262 32.2413 341.251 31.8767 340.126 31.7621C339.501 31.71 338.824 31.7829 338.105 31.9913C337.397 32.1996 336.907 32.6371 336.647 33.3038L334.96 38.3662C334.027 41.0068 334.033 42.3245 334.98 42.3245V42.637H332.043V42.3245C332.293 42.3245 332.652 42.0432 333.126 41.4703C333.595 40.887 334.105 39.8193 334.647 38.262L340.814 20.1998L340.147 18.304H342.793L349.418 37.6162C349.876 38.9079 350.303 40.0224 350.709 40.9495C351.11 41.8661 351.439 42.3245 351.689 42.3245V42.637H347.647V42.3245C347.756 42.3245 347.793 42.0068 347.751 41.3662C347.72 40.7151 347.548 39.9026 347.23 38.9287ZM340.98 20.6998L337.043 32.2621C337.428 31.9027 337.907 31.6736 338.48 31.5746C339.064 31.4652 339.611 31.4288 340.126 31.4705C341.418 31.5954 342.569 32.0434 343.584 32.8038C344.595 33.5538 345.428 34.4652 346.084 35.5329L340.98 20.6998Z" fill="white"/>
<path d="M183.607 55.9934C184.008 55.8997 184.446 55.8372 184.92 55.8059C185.389 55.7642 185.857 55.7434 186.316 55.7434C186.8 55.7434 187.295 55.7955 187.795 55.8892C188.305 55.9882 188.774 56.1705 189.191 56.4309C189.607 56.6809 189.946 57.0298 190.212 57.4726C190.472 57.9205 190.607 58.4882 190.607 59.1809C190.607 59.8788 190.482 60.4621 190.232 60.9308C189.993 61.3892 189.67 61.7642 189.253 62.0558C188.847 62.3475 188.383 62.5662 187.857 62.7017C187.342 62.8266 186.805 62.8891 186.253 62.8891C186.196 62.8891 186.107 62.8891 185.982 62.8891C185.857 62.8891 185.722 62.8891 185.587 62.8891C185.462 62.8787 185.337 62.8631 185.212 62.8475C185.087 62.8371 184.993 62.8266 184.941 62.8266V67.0766H183.607V55.9934ZM186.357 56.9101C186.076 56.9101 185.805 56.9205 185.545 56.9309C185.295 56.9309 185.092 56.9517 184.941 56.9934V61.6392C184.993 61.6548 185.076 61.6704 185.191 61.6808C185.316 61.6808 185.441 61.6912 185.566 61.7017C185.691 61.7017 185.805 61.7017 185.92 61.7017C186.045 61.7017 186.133 61.7017 186.191 61.7017C186.55 61.7017 186.904 61.6704 187.253 61.5975C187.613 61.5298 187.941 61.4048 188.232 61.2225C188.524 61.0454 188.753 60.785 188.92 60.4517C189.097 60.1184 189.191 59.6965 189.191 59.1809C189.191 58.7538 189.107 58.3892 188.941 58.0975C188.784 57.8059 188.571 57.5715 188.295 57.3892C188.014 57.2121 187.701 57.0871 187.357 57.0142C187.024 56.9465 186.691 56.9101 186.357 56.9101Z" fill="#525F73" fill-opacity="0.4"/>
<path d="M201.263 64.2225C201.263 63.7798 201.127 63.4204 200.867 63.1391C200.601 62.8475 200.268 62.5975 199.867 62.3892C199.461 62.1704 199.023 61.9621 198.554 61.7642C198.08 61.5715 197.643 61.3423 197.242 61.0767C196.851 60.8006 196.518 60.4621 196.242 60.0559C195.976 59.6548 195.846 59.1496 195.846 58.535C195.846 57.66 196.148 56.9674 196.763 56.4517C197.372 55.9413 198.242 55.6809 199.367 55.6809C200.002 55.6809 200.586 55.733 201.117 55.8267C201.658 55.9257 202.08 56.0507 202.388 56.2017L201.992 57.3684C201.742 57.2434 201.377 57.134 200.908 57.0351C200.435 56.9257 199.898 56.8684 199.304 56.8684C198.596 56.8684 198.06 57.0298 197.7 57.3476C197.351 57.6548 197.179 58.0246 197.179 58.4517C197.179 58.8684 197.31 59.2173 197.575 59.4934C197.851 59.7746 198.185 60.0246 198.575 60.2433C198.976 60.4517 199.414 60.6704 199.888 60.8892C200.356 61.0975 200.789 61.3475 201.179 61.6392C201.58 61.9204 201.914 62.2589 202.179 62.66C202.455 63.0506 202.596 63.535 202.596 64.1183C202.596 64.5923 202.502 65.0245 202.325 65.4099C202.158 65.8006 201.908 66.1339 201.575 66.4099C201.252 66.6912 200.856 66.9047 200.388 67.0558C199.914 67.1912 199.377 67.2641 198.783 67.2641C197.976 67.2641 197.31 67.2016 196.784 67.0766C196.268 66.9672 195.867 66.837 195.575 66.6808L196.034 65.4724C196.268 65.6131 196.627 65.7537 197.117 65.8891C197.601 66.0141 198.143 66.0766 198.742 66.0766C199.086 66.0766 199.414 66.0454 199.721 65.9724C200.039 65.9047 200.31 65.7954 200.533 65.6391C200.752 65.4881 200.929 65.2954 201.054 65.0558C201.19 64.8214 201.263 64.5454 201.263 64.2225Z" fill="#525F73" fill-opacity="0.4"/>
<path d="M208.656 55.8683H209.99V67.0765H208.656V55.8683Z" fill="#525F73" fill-opacity="0.4"/>
<path d="M223.814 66.6183C223.491 66.8578 223.09 67.0245 222.606 67.1183C222.116 67.212 221.596 67.2641 221.044 67.2641C220.361 67.2641 219.731 67.1495 219.148 66.9308C218.564 66.6964 218.049 66.3474 217.606 65.8891C217.174 65.4204 216.825 64.8162 216.564 64.0766C216.314 63.3423 216.189 62.4725 216.189 61.4725C216.189 60.4308 216.325 59.5506 216.606 58.8267C216.898 58.0923 217.273 57.4934 217.731 57.0351C218.2 56.5663 218.721 56.2226 219.294 56.0142C219.861 55.7955 220.445 55.6809 221.044 55.6809C221.695 55.6809 222.221 55.7174 222.627 55.7851C223.028 55.858 223.377 55.9517 223.669 56.0767L223.335 57.2434C222.82 56.9934 222.09 56.8684 221.148 56.8684C220.715 56.8684 220.283 56.9517 219.856 57.1184C219.424 57.2746 219.044 57.5298 218.71 57.8892C218.377 58.2538 218.106 58.733 217.898 59.3267C217.7 59.91 217.606 60.6288 217.606 61.4725C217.606 62.2381 217.695 62.91 217.877 63.4933C218.07 64.0662 218.335 64.5454 218.669 64.9308C219.012 65.3214 219.408 65.6131 219.856 65.8058C220.314 65.9881 220.804 66.0766 221.335 66.0766C221.82 66.0766 222.236 66.0349 222.585 65.9516C222.945 65.8579 223.252 65.7329 223.502 65.5766L223.814 66.6183Z" fill="#525F73" fill-opacity="0.4"/>
<path d="M228.974 61.4729C228.974 59.6135 229.369 58.1812 230.161 57.1812C230.953 56.1813 232.078 55.6813 233.536 55.6813C234.328 55.6813 235.005 55.8219 235.578 56.0979C236.161 56.3792 236.64 56.775 237.015 57.2854C237.39 57.7854 237.666 58.3896 237.849 59.0979C238.026 59.8062 238.119 60.5979 238.119 61.4729C238.119 63.3478 237.724 64.7853 236.932 65.7853C236.14 66.7749 235.005 67.2644 233.536 67.2644C232.755 67.2644 232.083 67.1238 231.515 66.8478C230.942 66.5717 230.463 66.1811 230.078 65.6811C229.703 65.1707 229.422 64.5561 229.244 63.8478C229.062 63.1395 228.974 62.3478 228.974 61.4729ZM230.39 61.4729C230.39 62.0978 230.442 62.6916 230.557 63.2437C230.682 63.8009 230.869 64.2853 231.119 64.702C231.38 65.1186 231.713 65.452 232.119 65.702C232.52 65.952 232.994 66.077 233.536 66.077C234.52 66.077 235.296 65.702 235.869 64.952C236.437 64.202 236.724 63.0457 236.724 61.4729C236.724 60.8635 236.661 60.2802 236.536 59.7229C236.411 59.1708 236.213 58.6812 235.953 58.2646C235.687 57.8375 235.354 57.4937 234.953 57.2437C234.562 56.9937 234.088 56.8687 233.536 56.8687C232.547 56.8687 231.776 57.2437 231.224 57.9937C230.666 58.7437 230.39 59.9052 230.39 61.4729ZM234.724 53.1605H236.536V53.4938L233.932 55.0354H232.828L234.724 53.1605Z" fill="#525F73" fill-opacity="0.4"/>
<path d="M250.648 67.0765H244.023V55.8683H245.357V65.8891H250.648V67.0765Z" fill="#525F73" fill-opacity="0.4"/>
<path d="M255.485 61.4725C255.485 59.6131 255.881 58.1809 256.673 57.1809C257.464 56.1809 258.589 55.6809 260.048 55.6809C260.839 55.6809 261.517 55.8215 262.089 56.0976C262.673 56.3788 263.152 56.7746 263.527 57.2851C263.902 57.785 264.178 58.3892 264.36 59.0975C264.537 59.8059 264.631 60.5975 264.631 61.4725C264.631 63.3475 264.235 64.785 263.444 65.7849C262.652 66.7745 261.517 67.2641 260.048 67.2641C259.267 67.2641 258.595 67.1235 258.027 66.8474C257.454 66.5714 256.975 66.1808 256.59 65.6808C256.215 65.1704 255.933 64.5558 255.756 63.8475C255.574 63.1391 255.485 62.3475 255.485 61.4725ZM256.902 61.4725C256.902 62.0975 256.954 62.6912 257.069 63.2433C257.194 63.8006 257.381 64.285 257.631 64.7016C257.892 65.1183 258.225 65.4516 258.631 65.7016C259.032 65.9516 259.506 66.0766 260.048 66.0766C261.032 66.0766 261.808 65.7016 262.381 64.9516C262.949 64.2016 263.235 63.0454 263.235 61.4725C263.235 60.8631 263.173 60.2798 263.048 59.7225C262.923 59.1704 262.725 58.6809 262.464 58.2642C262.199 57.8371 261.865 57.4934 261.464 57.2434C261.074 56.9934 260.6 56.8684 260.048 56.8684C259.058 56.8684 258.287 57.2434 257.735 57.9934C257.178 58.7434 256.902 59.9048 256.902 61.4725Z" fill="#525F73" fill-opacity="0.4"/>
<path d="M274.327 61.4933H278.077V66.4308C277.91 66.5558 277.702 66.6756 277.452 66.7849C277.212 66.8839 276.957 66.9724 276.681 67.0558C276.416 67.1235 276.14 67.1703 275.848 67.2016C275.556 67.2433 275.27 67.2641 274.994 67.2641C274.27 67.2641 273.608 67.1495 273.015 66.9308C272.416 66.6964 271.895 66.3422 271.452 65.8683C271.02 65.3995 270.681 64.8006 270.431 64.0766C270.192 63.3423 270.077 62.4725 270.077 61.4725C270.077 60.4465 270.223 59.5663 270.515 58.8267C270.817 58.0923 271.207 57.4934 271.681 57.0351C272.166 56.5663 272.707 56.2226 273.306 56.0142C273.9 55.7955 274.499 55.6809 275.098 55.6809C275.733 55.6809 276.265 55.7174 276.681 55.7851C277.098 55.858 277.452 55.9517 277.744 56.0767L277.41 57.2434C276.895 56.9934 276.166 56.8684 275.223 56.8684C274.765 56.8684 274.311 56.9465 273.869 57.0976C273.436 57.2538 273.041 57.5142 272.681 57.8892C272.332 58.2538 272.046 58.7225 271.827 59.3059C271.603 59.8892 271.494 60.6131 271.494 61.4725C271.494 62.2642 271.582 62.9516 271.765 63.535C271.942 64.1079 272.192 64.587 272.515 64.9725C272.848 65.3474 273.244 65.6287 273.702 65.8058C274.16 65.9881 274.66 66.0766 275.202 66.0766C275.879 66.0766 276.457 65.9464 276.931 65.6808V62.5558L274.327 62.2433V61.4933Z" fill="#525F73" fill-opacity="0.4"/>
<path d="M289.309 63.9726H285.184L284.059 67.0768H282.746L286.996 55.7019H287.6L291.85 67.0768H290.454L289.309 63.9726ZM285.621 62.8268H288.913L287.663 59.4102L287.267 57.7227H287.246L286.85 59.4519L285.621 62.8268Z" fill="#525F73" fill-opacity="0.4"/>
<path d="M183.607 55.9934C184.008 55.8997 184.446 55.8372 184.92 55.8059C185.389 55.7642 185.857 55.7434 186.316 55.7434C186.8 55.7434 187.295 55.7955 187.795 55.8892C188.305 55.9882 188.774 56.1705 189.191 56.4309C189.607 56.6809 189.946 57.0298 190.212 57.4726C190.472 57.9205 190.607 58.4882 190.607 59.1809C190.607 59.8788 190.482 60.4621 190.232 60.9308C189.993 61.3892 189.67 61.7642 189.253 62.0558C188.847 62.3475 188.383 62.5662 187.857 62.7017C187.342 62.8266 186.805 62.8891 186.253 62.8891C186.196 62.8891 186.107 62.8891 185.982 62.8891C185.857 62.8891 185.722 62.8891 185.587 62.8891C185.462 62.8787 185.337 62.8631 185.212 62.8475C185.087 62.8371 184.993 62.8266 184.941 62.8266V67.0766H183.607V55.9934ZM186.357 56.9101C186.076 56.9101 185.805 56.9205 185.545 56.9309C185.295 56.9309 185.092 56.9517 184.941 56.9934V61.6392C184.993 61.6548 185.076 61.6704 185.191 61.6808C185.316 61.6808 185.441 61.6912 185.566 61.7017C185.691 61.7017 185.805 61.7017 185.92 61.7017C186.045 61.7017 186.133 61.7017 186.191 61.7017C186.55 61.7017 186.904 61.6704 187.253 61.5975C187.613 61.5298 187.941 61.4048 188.232 61.2225C188.524 61.0454 188.753 60.785 188.92 60.4517C189.097 60.1184 189.191 59.6965 189.191 59.1809C189.191 58.7538 189.107 58.3892 188.941 58.0975C188.784 57.8059 188.571 57.5715 188.295 57.3892C188.014 57.2121 187.701 57.0871 187.357 57.0142C187.024 56.9465 186.691 56.9101 186.357 56.9101Z" fill="white"/>
<path d="M201.263 64.2225C201.263 63.7798 201.127 63.4204 200.867 63.1391C200.601 62.8475 200.268 62.5975 199.867 62.3892C199.461 62.1704 199.023 61.9621 198.554 61.7642C198.08 61.5715 197.643 61.3423 197.242 61.0767C196.851 60.8006 196.518 60.4621 196.242 60.0559C195.976 59.6548 195.846 59.1496 195.846 58.535C195.846 57.66 196.148 56.9674 196.763 56.4517C197.372 55.9413 198.242 55.6809 199.367 55.6809C200.002 55.6809 200.586 55.733 201.117 55.8267C201.658 55.9257 202.08 56.0507 202.388 56.2017L201.992 57.3684C201.742 57.2434 201.377 57.134 200.908 57.0351C200.435 56.9257 199.898 56.8684 199.304 56.8684C198.596 56.8684 198.06 57.0298 197.7 57.3476C197.351 57.6548 197.179 58.0246 197.179 58.4517C197.179 58.8684 197.31 59.2173 197.575 59.4934C197.851 59.7746 198.185 60.0246 198.575 60.2433C198.976 60.4517 199.414 60.6704 199.888 60.8892C200.356 61.0975 200.789 61.3475 201.179 61.6392C201.58 61.9204 201.914 62.2589 202.179 62.66C202.455 63.0506 202.596 63.535 202.596 64.1183C202.596 64.5923 202.502 65.0245 202.325 65.4099C202.158 65.8006 201.908 66.1339 201.575 66.4099C201.252 66.6912 200.856 66.9047 200.388 67.0558C199.914 67.1912 199.377 67.2641 198.783 67.2641C197.976 67.2641 197.31 67.2016 196.784 67.0766C196.268 66.9672 195.867 66.837 195.575 66.6808L196.034 65.4724C196.268 65.6131 196.627 65.7537 197.117 65.8891C197.601 66.0141 198.143 66.0766 198.742 66.0766C199.086 66.0766 199.414 66.0454 199.721 65.9724C200.039 65.9047 200.31 65.7954 200.533 65.6391C200.752 65.4881 200.929 65.2954 201.054 65.0558C201.19 64.8214 201.263 64.5454 201.263 64.2225Z" fill="white"/>
<path d="M208.656 55.8683H209.99V67.0765H208.656V55.8683Z" fill="white"/>
<path d="M223.814 66.6183C223.491 66.8578 223.09 67.0245 222.606 67.1183C222.116 67.212 221.596 67.2641 221.044 67.2641C220.361 67.2641 219.731 67.1495 219.148 66.9308C218.564 66.6964 218.049 66.3474 217.606 65.8891C217.174 65.4204 216.825 64.8162 216.564 64.0766C216.314 63.3423 216.189 62.4725 216.189 61.4725C216.189 60.4308 216.325 59.5506 216.606 58.8267C216.898 58.0923 217.273 57.4934 217.731 57.0351C218.2 56.5663 218.721 56.2226 219.294 56.0142C219.861 55.7955 220.445 55.6809 221.044 55.6809C221.695 55.6809 222.221 55.7174 222.627 55.7851C223.028 55.858 223.377 55.9517 223.669 56.0767L223.335 57.2434C222.82 56.9934 222.09 56.8684 221.148 56.8684C220.715 56.8684 220.283 56.9517 219.856 57.1184C219.424 57.2746 219.044 57.5298 218.71 57.8892C218.377 58.2538 218.106 58.733 217.898 59.3267C217.7 59.91 217.606 60.6288 217.606 61.4725C217.606 62.2381 217.695 62.91 217.877 63.4933C218.07 64.0662 218.335 64.5454 218.669 64.9308C219.012 65.3214 219.408 65.6131 219.856 65.8058C220.314 65.9881 220.804 66.0766 221.335 66.0766C221.82 66.0766 222.236 66.0349 222.585 65.9516C222.945 65.8579 223.252 65.7329 223.502 65.5766L223.814 66.6183Z" fill="white"/>
<path d="M228.974 61.4729C228.974 59.6135 229.369 58.1812 230.161 57.1812C230.953 56.1813 232.078 55.6813 233.536 55.6813C234.328 55.6813 235.005 55.8219 235.578 56.0979C236.161 56.3792 236.64 56.775 237.015 57.2854C237.39 57.7854 237.666 58.3896 237.849 59.0979C238.026 59.8062 238.119 60.5979 238.119 61.4729C238.119 63.3478 237.724 64.7853 236.932 65.7853C236.14 66.7749 235.005 67.2644 233.536 67.2644C232.755 67.2644 232.083 67.1238 231.515 66.8478C230.942 66.5717 230.463 66.1811 230.078 65.6811C229.703 65.1707 229.422 64.5561 229.244 63.8478C229.062 63.1395 228.974 62.3478 228.974 61.4729ZM230.39 61.4729C230.39 62.0978 230.442 62.6916 230.557 63.2437C230.682 63.8009 230.869 64.2853 231.119 64.702C231.38 65.1186 231.713 65.452 232.119 65.702C232.52 65.952 232.994 66.077 233.536 66.077C234.52 66.077 235.296 65.702 235.869 64.952C236.437 64.202 236.724 63.0457 236.724 61.4729C236.724 60.8635 236.661 60.2802 236.536 59.7229C236.411 59.1708 236.213 58.6812 235.953 58.2646C235.687 57.8375 235.354 57.4937 234.953 57.2437C234.562 56.9937 234.088 56.8687 233.536 56.8687C232.547 56.8687 231.776 57.2437 231.224 57.9937C230.666 58.7437 230.39 59.9052 230.39 61.4729ZM234.724 53.1605H236.536V53.4938L233.932 55.0354H232.828L234.724 53.1605Z" fill="white"/>
<path d="M250.648 67.0765H244.023V55.8683H245.357V65.8891H250.648V67.0765Z" fill="white"/>
<path d="M255.485 61.4725C255.485 59.6131 255.881 58.1809 256.673 57.1809C257.464 56.1809 258.589 55.6809 260.048 55.6809C260.839 55.6809 261.517 55.8215 262.089 56.0976C262.673 56.3788 263.152 56.7746 263.527 57.2851C263.902 57.785 264.178 58.3892 264.36 59.0975C264.537 59.8059 264.631 60.5975 264.631 61.4725C264.631 63.3475 264.235 64.785 263.444 65.7849C262.652 66.7745 261.517 67.2641 260.048 67.2641C259.267 67.2641 258.595 67.1235 258.027 66.8474C257.454 66.5714 256.975 66.1808 256.59 65.6808C256.215 65.1704 255.933 64.5558 255.756 63.8475C255.574 63.1391 255.485 62.3475 255.485 61.4725ZM256.902 61.4725C256.902 62.0975 256.954 62.6912 257.069 63.2433C257.194 63.8006 257.381 64.285 257.631 64.7016C257.892 65.1183 258.225 65.4516 258.631 65.7016C259.032 65.9516 259.506 66.0766 260.048 66.0766C261.032 66.0766 261.808 65.7016 262.381 64.9516C262.949 64.2016 263.235 63.0454 263.235 61.4725C263.235 60.8631 263.173 60.2798 263.048 59.7225C262.923 59.1704 262.725 58.6809 262.464 58.2642C262.199 57.8371 261.865 57.4934 261.464 57.2434C261.074 56.9934 260.6 56.8684 260.048 56.8684C259.058 56.8684 258.287 57.2434 257.735 57.9934C257.178 58.7434 256.902 59.9048 256.902 61.4725Z" fill="white"/>
<path d="M274.327 61.4933H278.077V66.4308C277.91 66.5558 277.702 66.6756 277.452 66.7849C277.212 66.8839 276.957 66.9724 276.681 67.0558C276.416 67.1235 276.14 67.1703 275.848 67.2016C275.556 67.2433 275.27 67.2641 274.994 67.2641C274.27 67.2641 273.608 67.1495 273.015 66.9308C272.416 66.6964 271.895 66.3422 271.452 65.8683C271.02 65.3995 270.681 64.8006 270.431 64.0766C270.192 63.3423 270.077 62.4725 270.077 61.4725C270.077 60.4465 270.223 59.5663 270.515 58.8267C270.817 58.0923 271.207 57.4934 271.681 57.0351C272.166 56.5663 272.707 56.2226 273.306 56.0142C273.9 55.7955 274.499 55.6809 275.098 55.6809C275.733 55.6809 276.265 55.7174 276.681 55.7851C277.098 55.858 277.452 55.9517 277.744 56.0767L277.41 57.2434C276.895 56.9934 276.166 56.8684 275.223 56.8684C274.765 56.8684 274.311 56.9465 273.869 57.0976C273.436 57.2538 273.041 57.5142 272.681 57.8892C272.332 58.2538 272.046 58.7225 271.827 59.3059C271.603 59.8892 271.494 60.6131 271.494 61.4725C271.494 62.2642 271.582 62.9516 271.765 63.535C271.942 64.1079 272.192 64.587 272.515 64.9725C272.848 65.3474 273.244 65.6287 273.702 65.8058C274.16 65.9881 274.66 66.0766 275.202 66.0766C275.879 66.0766 276.457 65.9464 276.931 65.6808V62.5558L274.327 62.2433V61.4933Z" fill="white"/>
<path d="M289.309 63.9726H285.184L284.059 67.0768H282.746L286.996 55.7019H287.6L291.85 67.0768H290.454L289.309 63.9726ZM285.621 62.8268H288.913L287.663 59.4102L287.267 57.7227H287.246L286.85 59.4519L285.621 62.8268Z" fill="white"/>
</svg>
