<svg width="352" height="87" viewBox="0 0 352 87" fill="none" xmlns="http://www.w3.org/2000/svg">
<path d="M92.7507 22.97C92.4747 21.47 91.9747 20.0429 91.2507 18.6939C90.532 17.345 89.6205 16.1366 88.5216 15.0689C87.4226 14.0064 86.1883 13.1314 84.8185 12.4543C83.4487 11.772 82.006 11.3189 80.4955 11.0898C80.157 10.5481 79.7768 10.0377 79.3549 9.56371C78.933 9.08454 78.4695 8.64183 77.9747 8.24079C77.4799 7.83975 76.9539 7.48038 76.4018 7.16788C75.8445 6.85017 75.2716 6.58454 74.6726 6.36579C74.0737 6.14183 73.4591 5.97517 72.8341 5.85538C72.2091 5.73559 71.5737 5.66788 70.9382 5.65746C70.2976 5.64183 69.6622 5.67829 69.032 5.77204C68.4018 5.86059 67.782 6.00121 67.1726 6.19392C66.1466 4.71475 64.8705 3.49079 63.3445 2.53246C61.8185 1.56892 60.1674 0.943918 58.3862 0.657459C56.9487 0.516834 55.5268 0.621001 54.1205 0.975167C52.7195 1.32413 51.4174 1.90225 50.2143 2.70954C49.6987 2.26683 49.1466 1.87621 48.5632 1.53246C47.9747 1.19392 47.3601 0.90746 46.7247 0.673084C46.0841 0.443919 45.433 0.272042 44.7612 0.157459C44.0945 0.048083 43.4174 -0.00920698 42.7403 0.00120902C42.0632 0.0116263 41.3914 0.0793344 40.7247 0.209542C40.058 0.33975 39.407 0.527252 38.7768 0.772042C38.1414 1.02204 37.5372 1.32413 36.9591 1.67829C36.381 2.03246 35.8393 2.43871 35.3341 2.89183C34.0424 2.61058 32.7403 2.52204 31.4278 2.62621C30.1101 2.73038 28.8393 3.01683 27.6049 3.496C26.3757 3.97517 25.2403 4.621 24.2039 5.4335C23.1622 6.246 22.2612 7.19392 21.5007 8.27204C19.5945 8.29808 17.7664 8.69392 16.0164 9.44913C14.2612 10.2043 12.7247 11.272 11.3966 12.6418C10.3653 13.8398 9.55804 15.1731 8.9695 16.6418C8.38616 18.1106 8.05804 19.6366 7.98512 21.2148C6.30804 21.6939 4.81845 22.5116 3.51116 23.6627C2.20387 24.8137 1.20908 26.1939 0.526788 27.7929C0.0372052 29.4491 -0.108629 31.1314 0.0788712 32.8398C0.271579 34.5533 0.787205 36.1627 1.62575 37.6679C0.891372 39.595 0.516372 41.595 0.505955 43.6575C0.495539 45.7252 0.849705 47.7252 1.56325 49.6627C2.33929 51.3137 3.40179 52.7564 4.75595 53.9804C6.11012 55.2043 7.64658 56.1262 9.36533 56.7304C9.50595 58.9804 9.91221 61.1835 10.5945 63.3293C13.381 72.3554 22.3132 74.6418 28.1778 74.6418H28.3341L27.308 82.5898C27.2768 82.8137 27.2924 83.0325 27.3549 83.2512C27.4122 83.47 27.5112 83.6679 27.6518 83.8502C27.7872 84.0273 27.9539 84.1731 28.1518 84.2877C28.3497 84.4023 28.558 84.47 28.782 84.5012C28.8601 84.5012 28.9278 84.5012 29.006 84.5012C29.4382 84.5012 29.8185 84.3606 30.1414 84.0793C30.4695 83.7929 30.657 83.4387 30.7143 83.0064L31.9851 73.022C32.058 72.47 31.8966 72.0012 31.506 71.6054C31.1205 71.2043 30.6466 71.0377 30.0945 71.1054C29.558 71.1679 17.0007 72.4752 13.8549 62.3137C10.9018 52.7512 13.9278 44.9439 21.9435 41.4283C22.1622 41.345 22.3497 41.22 22.5112 41.0585C22.6778 40.897 22.8028 40.7043 22.8914 40.4908C22.9799 40.2773 23.0216 40.0585 23.0164 39.8241C23.0164 39.595 22.9695 39.371 22.8757 39.1627C22.782 38.9491 22.6518 38.7668 22.4851 38.6054C22.3185 38.4439 22.1257 38.3241 21.907 38.246C21.6935 38.1627 21.4695 38.1314 21.2403 38.1366C21.006 38.147 20.7872 38.2043 20.5789 38.3033C19.0789 38.9231 17.6882 39.7356 16.4018 40.7304C15.1205 41.7252 13.9903 42.871 13.0164 44.1679C12.0372 45.4648 11.2507 46.871 10.6518 48.3814C10.0476 49.8866 9.657 51.4491 9.47471 53.0637C7.31845 52.0585 5.73512 50.4804 4.72991 48.3241C4.16741 46.6783 3.91741 44.9856 3.9747 43.246C4.0372 41.5064 4.40179 39.8345 5.06845 38.2304C5.30804 37.6731 5.27158 37.1418 4.95387 36.6262C4.24554 35.4804 3.7872 34.246 3.57366 32.9179C3.36533 31.5898 3.41741 30.272 3.73512 28.9648C4.36533 27.6887 5.25075 26.621 6.38616 25.7616C7.52158 24.9023 8.79241 24.345 10.1935 24.0845C10.5737 23.9648 10.8757 23.746 11.0997 23.4179C11.3237 23.0898 11.4226 22.7304 11.3966 22.3345C11.3601 20.9804 11.558 19.6679 12.0007 18.3866C12.4382 17.1106 13.0893 15.9491 13.9487 14.9075C15.0841 13.7929 16.3966 12.9491 17.881 12.3814C19.3653 11.8085 20.9018 11.5533 22.4903 11.6158C23.0997 11.595 23.5632 11.3293 23.8862 10.8137C24.4643 9.87621 25.1726 9.05329 26.0164 8.34496C26.8601 7.63663 27.7976 7.08454 28.8185 6.67829C29.8445 6.27204 30.907 6.04288 32.006 5.98038C33.1049 5.92308 34.1882 6.03767 35.2507 6.32933C42.1153 8.53246 40.6935 16.3137 40.631 16.647C40.5841 16.871 40.5841 17.0898 40.6257 17.3137C40.6674 17.5377 40.7507 17.7408 40.8757 17.9335C41.0007 18.121 41.157 18.2773 41.3445 18.4075C41.5372 18.5325 41.7403 18.621 41.9643 18.6627C42.183 18.7095 42.407 18.7095 42.631 18.6679C42.8497 18.6262 43.058 18.5377 43.2455 18.4127C43.4382 18.2877 43.5945 18.1314 43.7195 17.9439C43.8497 17.7564 43.933 17.5533 43.9799 17.3293C44.2507 16.1262 44.3393 14.9075 44.2507 13.6731C44.1622 12.4387 43.8966 11.246 43.4591 10.095C43.0164 8.93871 42.4174 7.871 41.6622 6.89183C40.907 5.91788 40.0268 5.06892 39.0216 4.35017C39.8289 3.94392 40.6778 3.67308 41.5789 3.53767C42.4747 3.40746 43.3653 3.41788 44.2612 3.57413C45.1518 3.73038 45.9955 4.02204 46.7924 4.44913C47.5945 4.87621 48.3028 5.42308 48.9226 6.07933C49.0789 6.23038 49.256 6.35017 49.4539 6.4335C49.6518 6.52204 49.8549 6.56371 50.0737 6.57413C50.2872 6.57933 50.4955 6.54808 50.6987 6.47517C50.9018 6.40225 51.0841 6.29808 51.2455 6.15225C52.1987 5.38142 53.256 4.81371 54.4278 4.44913C55.5945 4.08454 56.7872 3.94913 58.0112 4.03767C59.5112 4.35017 60.881 4.95433 62.1205 5.85538C63.3653 6.75642 64.3653 7.86579 65.1257 9.19913C65.3549 9.52725 65.6622 9.746 66.0476 9.86058C66.4278 9.97517 66.808 9.95954 67.1778 9.80329C67.657 9.60538 68.1518 9.44392 68.657 9.33454C69.1674 9.21996 69.683 9.15746 70.2039 9.13663C70.7247 9.121 71.2403 9.15225 71.756 9.22517C72.2716 9.30329 72.7768 9.42829 73.2664 9.59496C73.7612 9.76163 74.2351 9.97517 74.6882 10.2304C75.1414 10.4856 75.5685 10.7825 75.9643 11.1158C76.3653 11.4491 76.7351 11.8137 77.0632 12.2148C77.3966 12.6158 77.6935 13.0429 77.9487 13.496C78.2351 14.0377 78.6883 14.3293 79.2976 14.3866C79.933 14.4439 80.5632 14.5533 81.183 14.72C81.7976 14.8814 82.4018 15.1002 82.9851 15.3658C83.5633 15.6314 84.1205 15.9439 84.6518 16.3033C85.183 16.6627 85.6778 17.0637 86.1414 17.5064C86.5997 17.9491 87.0216 18.4283 87.407 18.9387C87.7872 19.4543 88.1205 19.996 88.4122 20.5689C88.6987 21.1418 88.9382 21.7304 89.131 22.345C89.3185 22.9543 89.4591 23.5793 89.5424 24.2148C89.9018 25.6314 89.907 27.0533 89.558 28.4752C89.2039 29.897 88.5372 31.1523 87.5528 32.2408C86.4955 32.9595 85.3289 33.4023 84.0528 33.5637C82.782 33.7304 81.5424 33.595 80.3341 33.1627C80.2351 32.7825 80.0893 32.4127 79.9018 32.0637C79.7143 31.7095 79.4903 31.3866 79.2299 31.0898C78.9643 30.7877 78.6726 30.5273 78.3497 30.2981C78.0268 30.0689 77.6778 29.8762 77.308 29.7304C76.9382 29.5793 76.558 29.4752 76.1674 29.4179C75.7716 29.3606 75.381 29.345 74.9851 29.3762C74.5893 29.4127 74.1987 29.4908 73.8237 29.6158C73.4435 29.7356 73.0893 29.9023 72.7507 30.1106C72.407 30.3189 72.0997 30.5637 71.8185 30.8398C71.5372 31.121 71.2872 31.4283 71.0789 31.7668C70.8705 32.1054 70.7039 32.4648 70.5789 32.8398C70.4487 33.2148 70.3705 33.6054 70.3341 34.0012C70.2976 34.397 70.308 34.7877 70.3653 35.1835C70.4226 35.5741 70.5268 35.9595 70.6726 36.3293C70.8185 36.6939 71.006 37.0429 71.2351 37.371C71.4591 37.6939 71.7247 37.9908 72.0164 38.2564C72.3132 38.522 72.6362 38.746 72.9903 38.9335C73.3393 39.121 73.7039 39.2668 74.0893 39.371C74.4747 39.4752 74.8653 39.5325 75.2612 39.5429C75.657 39.5533 76.0528 39.522 76.4382 39.4387C76.8289 39.3606 77.2039 39.2356 77.5632 39.0689C77.9226 38.897 78.2612 38.6887 78.5685 38.4439C78.881 38.1991 79.1622 37.9179 79.407 37.6054C79.6518 37.2929 79.8601 36.9595 80.0268 36.595C81.0945 36.8554 82.1778 36.996 83.2768 37.0116C83.8914 37.0481 84.5112 37.022 85.1258 36.9335C85.7351 36.8398 86.3341 36.6939 86.9174 36.4804C87.5007 36.272 88.058 36.0064 88.5893 35.6835C89.1153 35.3606 89.6101 34.9908 90.0632 34.5689C90.5164 34.147 90.9278 33.6835 91.2872 33.1783C91.6466 32.6783 91.9539 32.1418 92.2091 31.5741C92.4643 31.0116 92.657 30.4231 92.7924 29.8189C92.9278 29.2147 93.0007 28.6054 93.0112 27.9856C94.157 29.8397 94.9278 31.8397 95.3185 33.9856C95.7143 36.1314 95.7039 38.2773 95.2924 40.4179C95.032 42.2929 94.4226 44.0481 93.4591 45.6835C92.5007 47.3137 91.2664 48.7043 89.756 49.845C89.1049 50.3033 88.3914 50.6054 87.6101 50.7564C86.8289 50.9075 86.0528 50.8866 85.282 50.6991C81.6362 49.9752 78.0841 50.2981 74.631 51.6627C74.5893 50.2043 74.3341 48.7877 73.8757 47.4023C73.4122 46.0168 72.7612 44.7304 71.9226 43.5377C71.0841 42.345 70.0893 41.3033 68.9435 40.4023C67.7924 39.5012 66.5424 38.7877 65.183 38.2564C64.9695 38.1887 64.7507 38.1575 64.5268 38.1731C64.3028 38.1887 64.0893 38.2512 63.8862 38.3502C63.683 38.4491 63.5112 38.5845 63.3601 38.7512C63.2143 38.9231 63.1049 39.1106 63.032 39.3241C62.9591 39.5377 62.9278 39.7564 62.9435 39.9804C62.9539 40.2043 63.0112 40.4179 63.1101 40.621C63.2091 40.8241 63.3393 41.0012 63.506 41.1523C63.6726 41.2981 63.8653 41.4127 64.0737 41.4908C64.7351 41.746 65.3653 42.0585 65.9643 42.4283C66.5632 42.8033 67.1257 43.2252 67.6466 43.7043C68.1674 44.1783 68.6414 44.6991 69.0632 45.2616C69.4903 45.8241 69.8601 46.4231 70.1726 47.0533C70.4851 47.6887 70.7403 48.345 70.933 49.022C71.1257 49.6991 71.256 50.3918 71.3185 51.095C71.381 51.7981 71.381 52.5012 71.3185 53.2043C71.2508 53.9075 71.1205 54.6002 70.9278 55.2773C69.5633 62.1991 64.3601 62.9543 56.5632 63.3241C53.9591 63.3293 51.3914 63.647 48.8653 64.2773C40.6101 66.8293 36.7716 78.5898 36.9487 84.4439C36.9539 84.6679 37.0007 84.8814 37.0893 85.0845C37.1778 85.2877 37.3028 85.4648 37.4643 85.621C37.6205 85.7773 37.808 85.897 38.0112 85.9804C38.2195 86.0637 38.433 86.1054 38.6518 86.1054H38.7039C38.933 86.1002 39.1466 86.0481 39.3549 85.9543C39.5632 85.8606 39.7403 85.7356 39.8966 85.5689C40.0528 85.4023 40.1726 85.2148 40.2507 85.0064C40.3341 84.7929 40.3705 84.5741 40.3601 84.345C40.2195 79.6835 43.4539 69.5273 49.8705 67.5377C52.1257 67.0064 54.407 66.7356 56.7247 66.7356C63.6674 66.3918 72.308 66.0012 74.2768 55.9335C74.308 55.7668 74.3185 55.6158 74.3445 55.4595C77.558 53.9023 80.9278 53.4179 84.4487 54.0116C85.683 54.3189 86.9226 54.3554 88.1726 54.1314C89.4226 53.9023 90.5737 53.4335 91.6205 52.72C93.5268 51.3189 95.0893 49.6054 96.308 47.5741C97.5268 45.5481 98.3132 43.3658 98.657 41.022C99.9591 33.6575 97.3757 25.996 92.7507 22.97ZM75.4278 36.1158C75.2039 36.1158 74.9903 36.0741 74.782 35.9908C74.5789 35.9023 74.3966 35.7825 74.2351 35.6262C74.0789 35.4648 73.9591 35.2825 73.8705 35.0793C73.7872 34.871 73.7403 34.6575 73.7403 34.4335C73.7403 34.2095 73.782 33.996 73.8705 33.7877C73.9539 33.5845 74.0737 33.4023 74.2351 33.2408C74.3914 33.0845 74.5737 32.9648 74.782 32.8762C74.9851 32.7929 75.2039 32.746 75.4226 32.746C75.6466 32.746 75.8653 32.7929 76.0685 32.8762C76.2768 32.9595 76.4591 33.0845 76.6153 33.2408C76.7768 33.397 76.8966 33.5793 76.9799 33.7877C77.0685 33.996 77.1101 34.2095 77.1101 34.4335C77.1101 34.6523 77.0685 34.871 76.9799 35.0741C76.8966 35.2825 76.7768 35.4648 76.6153 35.621C76.4591 35.7773 76.2768 35.9023 76.0737 35.9856C75.8653 36.0741 75.6518 36.1158 75.4278 36.1158Z" fill="#6D5BD0"/>
<path d="M20.5844 54.8919C20.4907 54.6887 20.3657 54.5064 20.199 54.3502C20.0323 54.1991 19.8448 54.0794 19.6313 54.0012C19.4178 53.9231 19.199 53.8866 18.975 53.8919C18.7459 53.9023 18.5323 53.9491 18.324 54.0429C18.1209 54.1366 17.9386 54.2669 17.7823 54.4335C17.6313 54.595 17.5115 54.7877 17.4334 54.996C17.35 55.2096 17.3136 55.4283 17.324 55.6575C17.3292 55.8814 17.3813 56.1002 17.475 56.3033C18.0636 57.4179 18.798 58.4231 19.6678 59.3346C20.5375 60.2408 21.5167 61.0168 22.6 61.6523C23.6886 62.2877 24.8396 62.7669 26.0584 63.0846C27.2719 63.4023 28.5115 63.5481 29.7719 63.5221C32.725 63.4439 35.5636 62.8241 38.2771 61.6523C38.548 61.9387 38.8448 62.1939 39.1678 62.4075C39.4959 62.6262 39.8396 62.8033 40.2094 62.9439C40.574 63.0793 40.9542 63.1731 41.3396 63.2252C41.7303 63.2721 42.1209 63.2773 42.5115 63.2356C42.8969 63.1991 43.2771 63.1158 43.6521 62.9856C44.0219 62.8554 44.3709 62.6887 44.7042 62.4804C45.0323 62.2669 45.3344 62.0221 45.6105 61.746C45.8865 61.4648 46.1261 61.1575 46.3292 60.8241C46.5323 60.4856 46.6938 60.1314 46.8136 59.7616C46.9334 59.3866 47.0115 59.0064 47.048 58.6158C47.0792 58.2252 47.0688 57.8346 47.0115 57.4491C46.9542 57.0585 46.85 56.6835 46.7094 56.3189C46.5636 55.9543 46.3761 55.6106 46.1573 55.2929C45.9334 54.97 45.673 54.6783 45.3813 54.4179C45.0896 54.1523 44.7719 53.9283 44.4282 53.7408C44.0844 53.5533 43.725 53.4023 43.35 53.2981C42.9698 53.1939 42.5844 53.1314 42.1938 53.1158C41.8032 53.1002 41.4125 53.1314 41.0271 53.2043C40.6469 53.2773 40.2719 53.3971 39.9178 53.5585C39.5584 53.7148 39.225 53.9127 38.9125 54.1523C38.6 54.3918 38.3188 54.6575 38.0688 54.9648C37.8188 55.2669 37.6105 55.5898 37.4386 55.9439C37.2615 56.2929 37.1313 56.6627 37.0428 57.0429C36.9542 57.4231 36.9125 57.8137 36.9125 58.2043C36.9125 58.3085 36.9386 58.4075 36.9438 58.5116C24.7511 63.3658 20.7563 55.2616 20.5844 54.8919ZM42.0219 56.5221C42.2459 56.5221 42.4594 56.5637 42.6678 56.6523C42.8709 56.7356 43.0532 56.8606 43.2146 57.0168C43.3709 57.1731 43.4907 57.3554 43.5792 57.5637C43.6625 57.7721 43.7042 57.9856 43.7042 58.2096C43.7042 58.4335 43.6625 58.6471 43.5792 58.8554C43.4907 59.0585 43.3709 59.2408 43.2094 59.3971C43.0532 59.5585 42.8709 59.6783 42.6625 59.7616C42.4594 59.8502 42.2459 59.8919 42.0219 59.8919C41.798 59.8919 41.5792 59.8502 41.3761 59.7616C41.1678 59.6783 40.9855 59.5533 40.8292 59.3971C40.673 59.2356 40.548 59.0533 40.4646 58.8502C40.3813 58.6419 40.3396 58.4283 40.3396 58.2043C40.3396 57.9804 40.3813 57.7668 40.4698 57.5585C40.5532 57.3554 40.673 57.1731 40.8344 57.0168C40.9907 56.8554 41.173 56.7356 41.3761 56.6523C41.5844 56.5637 41.798 56.5221 42.0219 56.5221Z" fill="#6D5BD0"/>
<path d="M25.3553 29.7095C25.3345 29.4856 25.272 29.272 25.1626 29.0689C25.0584 28.871 24.9178 28.6939 24.7407 28.5533C24.5689 28.4075 24.3709 28.2981 24.1574 28.2304C23.9386 28.1627 23.7147 28.1418 23.4907 28.1627C23.2616 28.1835 23.048 28.246 22.8501 28.3502C22.647 28.4595 22.4751 28.6002 22.3293 28.772C22.1834 28.9491 22.0793 29.1418 22.0116 29.3606C21.9439 29.5793 21.9178 29.7981 21.9386 30.0272C22.173 31.7043 22.7095 33.2773 23.548 34.7512C24.3866 36.22 25.4647 37.4856 26.7876 38.5481C28.3657 39.7148 30.0897 40.5845 31.9647 41.1523C33.8449 41.7252 35.7616 41.9648 37.7199 41.8762C39.1678 41.871 40.6105 41.7668 42.048 41.5689C43.2095 41.5012 44.3553 41.3241 45.4803 41.0325C46.6053 40.7356 47.6939 40.3345 48.7407 39.8293C49.7876 39.3189 50.772 38.7095 51.6991 38.0064C52.6261 37.2981 53.4699 36.5116 54.2407 35.6366C55.0064 34.7616 55.6834 33.8189 56.2616 32.8085C56.8449 31.8033 57.3189 30.746 57.6886 29.6418C58.0584 28.5377 58.3189 27.4075 58.4647 26.2564C58.6105 25.1002 58.6366 23.9439 58.5532 22.7825C58.9178 22.6158 59.2616 22.4127 59.5793 22.1679C59.8918 21.9179 60.1782 21.6418 60.4282 21.3293C60.6834 21.0168 60.8918 20.6835 61.0636 20.3189C61.2407 19.9595 61.3657 19.5793 61.4491 19.1887C61.5376 18.7981 61.5741 18.4022 61.5636 18.0012C61.5532 17.6002 61.5011 17.2043 61.397 16.8189C61.298 16.4283 61.1522 16.0585 60.9647 15.7043C60.7772 15.3502 60.548 15.0272 60.2824 14.7252C60.0168 14.4231 59.7251 14.1575 59.397 13.9283C59.0689 13.6939 58.7199 13.5064 58.3449 13.3554C57.9751 13.2095 57.5897 13.1054 57.1939 13.0429C56.798 12.9856 56.397 12.9752 56.0011 13.0116C55.6001 13.0429 55.2095 13.1262 54.8293 13.2512C54.4491 13.3762 54.0897 13.5429 53.7459 13.7564C53.4074 13.9647 53.0949 14.2147 52.8136 14.496C52.5272 14.7825 52.2824 15.095 52.0741 15.4335C51.8657 15.7772 51.6991 16.1366 51.5741 16.522C51.4491 16.9022 51.3709 17.2929 51.3345 17.6887C51.3032 18.0897 51.3189 18.4856 51.3761 18.8814C51.4386 19.2772 51.5428 19.6627 51.6939 20.0377C51.8449 20.4075 52.0324 20.7564 52.2668 21.0845C52.5011 21.4075 52.7668 21.7043 53.0689 21.97C53.3709 22.2304 53.6991 22.4595 54.0532 22.647C54.4074 22.8293 54.7772 22.9752 55.1678 23.0741C55.2772 26.2304 54.6053 36.397 41.5793 38.1939C39.4126 38.6783 37.2355 38.7252 35.048 38.3293C32.8605 37.9335 30.8397 37.1262 28.9803 35.9127C28.0116 35.1366 27.2147 34.2147 26.5897 33.147C25.9647 32.0793 25.5532 30.9335 25.3553 29.7095ZM56.4334 16.4647C56.6574 16.4647 56.8761 16.5064 57.0793 16.595C57.2876 16.6783 57.4699 16.8033 57.6261 16.9595C57.7824 17.1158 57.9074 17.2981 57.9907 17.5064C58.0793 17.7147 58.1209 17.9283 58.1209 18.1522C58.1209 18.3762 58.0793 18.5897 57.9907 18.7981C57.9074 19.0012 57.7824 19.1835 57.6261 19.3397C57.4647 19.5012 57.2824 19.621 57.0793 19.7043C56.8709 19.7929 56.6574 19.8345 56.4334 19.8345C56.2095 19.8345 55.9959 19.7929 55.7876 19.7043C55.5845 19.621 55.4022 19.496 55.2407 19.3397C55.0845 19.1783 54.9647 18.996 54.8814 18.7929C54.7928 18.5845 54.7511 18.371 54.7511 18.147C54.7511 17.9231 54.798 17.7095 54.8814 17.5012C54.9699 17.2929 55.0897 17.1106 55.2511 16.9543C55.4074 16.7981 55.5897 16.6731 55.798 16.5897C56.0064 16.5064 56.2199 16.4647 56.4439 16.4647H56.4334Z" fill="#6D5BD0"/>
<path d="M78.3965 27.397C79.7611 27.3866 81.084 27.1574 82.3705 26.7147C82.5944 26.647 82.7975 26.5376 82.9746 26.3918C83.1569 26.246 83.2975 26.0689 83.4069 25.8606C83.5111 25.6574 83.5736 25.4387 83.5944 25.2043C83.61 24.9751 83.584 24.7512 83.5059 24.5272C83.433 24.3085 83.3184 24.1106 83.1673 23.9387C83.0111 23.7668 82.8288 23.6314 82.6205 23.5324C82.4069 23.4335 82.1882 23.3762 81.959 23.3658C81.7246 23.3606 81.5007 23.397 81.2819 23.4803C73.6986 26.0324 69.0059 17.9491 68.808 17.6053C68.6986 17.4074 68.5527 17.2408 68.3757 17.1053C68.1934 16.9647 67.9955 16.8658 67.7819 16.8085C67.5632 16.7512 67.3392 16.7356 67.1152 16.7616C66.8965 16.7876 66.683 16.8606 66.4902 16.9699C66.2923 17.0793 66.1257 17.2251 65.985 17.4022C65.8444 17.5793 65.7455 17.7772 65.6882 17.996C65.6257 18.2095 65.61 18.4335 65.6361 18.6574C65.6621 18.8814 65.7298 19.0897 65.8392 19.2876C66.459 20.4335 67.2142 21.4908 68.1048 22.4491C68.9902 23.4074 69.985 24.2408 71.084 24.9491C72.1777 25.6574 73.3444 26.2147 74.584 26.6314C75.8236 27.0481 77.0944 27.3033 78.3965 27.397Z" fill="#6D5BD0"/>
<path d="M30.5164 14.1679C30.2924 14.1366 30.0737 14.1522 29.8549 14.2095C29.6362 14.2668 29.4383 14.3658 29.256 14.5064C29.0789 14.6418 28.9278 14.8085 28.8185 15.0064C28.7039 15.1991 28.631 15.4127 28.5997 15.6366C28.5216 16.2304 28.4903 16.8293 28.5112 17.4283C28.532 18.0272 28.5997 18.621 28.7247 19.2043C28.8497 19.7929 29.0216 20.3658 29.2403 20.9231C29.4643 21.4804 29.7299 22.0168 30.0476 22.5272C30.3601 23.0377 30.7143 23.5168 31.1101 23.9699C31.5112 24.4179 31.9435 24.8293 32.407 25.2043C32.8758 25.5793 33.3758 25.9127 33.9018 26.1991C34.4278 26.4908 34.9695 26.7304 35.5372 26.9283C35.5789 27.3189 35.657 27.7043 35.7872 28.0793C35.9122 28.4543 36.0841 28.8085 36.2924 29.1418C36.506 29.4752 36.7508 29.7824 37.032 30.0585C37.3133 30.3345 37.6258 30.5793 37.9643 30.7824C38.3028 30.9856 38.657 31.147 39.0372 31.272C39.4122 31.3918 39.7976 31.4647 40.1883 31.496C40.5841 31.5272 40.9747 31.5116 41.3653 31.4491C41.756 31.3866 42.1362 31.2824 42.5008 31.1314C42.8653 30.9856 43.2091 30.7929 43.532 30.5637C43.8549 30.3345 44.1414 30.0689 44.4018 29.772C44.6622 29.4699 44.8862 29.147 45.0685 28.7981C45.2508 28.4491 45.3914 28.0793 45.4903 27.6991C45.5893 27.3137 45.6414 26.9283 45.6466 26.5324C45.6518 26.1366 45.6153 25.746 45.5268 25.3606C45.4435 24.9752 45.3133 24.6002 45.1466 24.246C44.9747 23.8918 44.7612 23.5585 44.5112 23.2512C44.2612 22.9439 43.9799 22.6731 43.6674 22.4283C43.3549 22.1887 43.0164 21.9856 42.657 21.8241C42.2976 21.6627 41.9226 21.5481 41.532 21.4699C41.1466 21.397 40.756 21.371 40.3601 21.3866C39.9643 21.4022 39.5789 21.4647 39.1987 21.5741C38.8185 21.6835 38.4539 21.8345 38.1101 22.0272C37.7664 22.2199 37.4487 22.4491 37.157 22.7147C36.8653 22.9856 36.6101 23.2824 36.3862 23.6054C35.657 23.3137 34.9903 22.9074 34.3966 22.3918C33.7976 21.8814 33.3028 21.2824 32.9018 20.6002C32.506 19.9231 32.2299 19.1939 32.0737 18.4231C31.9174 17.6522 31.8914 16.8762 31.9903 16.0949C32.0216 15.8658 32.006 15.647 31.9487 15.4231C31.8914 15.2043 31.7924 15.0064 31.657 14.8241C31.5164 14.6418 31.3497 14.496 31.1518 14.3814C30.9539 14.2668 30.7455 14.1991 30.5164 14.1679ZM40.5893 24.7981C40.8133 24.7981 41.0268 24.8397 41.2351 24.9231C41.4435 25.0064 41.6258 25.1314 41.782 25.2877C41.9435 25.4439 42.0633 25.6262 42.1466 25.8345C42.2351 26.0377 42.2768 26.2564 42.2768 26.4804C42.2768 26.6991 42.2351 26.9179 42.1518 27.121C42.0633 27.3293 41.9435 27.5116 41.7872 27.6679C41.6258 27.8293 41.4487 27.9491 41.2403 28.0377C41.032 28.121 40.8185 28.1627 40.5945 28.1627C40.3706 28.1627 40.157 28.121 39.9487 28.0377C39.7455 27.9491 39.5633 27.8293 39.4018 27.6731C39.2456 27.5116 39.1258 27.3293 39.0372 27.1262C38.9539 26.9179 38.9122 26.7043 38.9122 26.4804C38.9122 26.2564 38.9539 26.0429 39.0424 25.8397C39.1258 25.6314 39.2456 25.4491 39.4018 25.2929C39.5633 25.1366 39.7455 25.0116 39.9487 24.9283C40.1518 24.8397 40.3706 24.7981 40.5893 24.7981Z" fill="#6D5BD0"/>
<path d="M60.7768 53.1054C61.4538 53.1054 62.1049 52.9752 62.7299 52.7148C63.3549 52.4596 63.9018 52.0898 64.3809 51.6106C64.8601 51.1314 65.2299 50.5793 65.4903 49.9543C65.7455 49.3293 65.8757 48.6835 65.8757 48.0064C65.8757 47.3293 65.7455 46.6783 65.4903 46.0533C65.2299 45.4283 64.8601 44.8762 64.3809 44.3971C63.9018 43.9231 63.3549 43.5533 62.7299 43.2929C62.1049 43.0325 61.4538 42.9075 60.7768 42.9075C60.0424 42.9075 59.3445 43.0585 58.683 43.3658C58.0163 43.6679 57.4434 44.1002 56.9643 44.6523C56.4486 44.4075 55.9122 44.2043 55.3601 44.0533C54.808 43.9023 54.2507 43.7981 53.6778 43.7408C53.1101 43.6887 52.5372 43.6835 51.9695 43.7252C51.3966 43.7721 50.8341 43.8658 50.282 44.0064C49.7247 44.1523 49.1882 44.3398 48.6674 44.5741C48.1466 44.8137 47.6466 45.095 47.1778 45.4179C46.7038 45.7408 46.2611 46.1002 45.8549 46.5012C45.4434 46.9023 45.0736 47.3346 44.7351 47.7981C44.6049 47.9804 44.5163 48.1835 44.4643 48.4023C44.4122 48.6262 44.407 48.845 44.4434 49.0689C44.4799 49.2929 44.558 49.5012 44.6778 49.6939C44.7976 49.8866 44.9486 50.0481 45.1361 50.1783C45.3184 50.3085 45.5216 50.4023 45.7403 50.4543C45.9643 50.5064 46.183 50.5116 46.407 50.4752C46.6309 50.4387 46.8393 50.3606 47.032 50.2408C47.2247 50.121 47.3861 49.97 47.5163 49.7825C47.9695 49.1627 48.5216 48.6366 49.1622 48.2096C49.8028 47.7825 50.4955 47.4804 51.2455 47.2981C51.9955 47.121 52.7559 47.0741 53.5216 47.1679C54.282 47.2564 55.0111 47.4752 55.6986 47.8241C55.6986 47.8866 55.6778 47.9387 55.6778 48.0012C55.6778 48.6783 55.8132 49.3293 56.0684 49.9491C56.3288 50.5741 56.6986 51.1262 57.1778 51.6002C57.6518 52.0793 58.2038 52.4491 58.8288 52.7096C59.4538 52.97 60.0997 53.1002 60.7768 53.1054ZM60.7768 46.3189C61.0007 46.3189 61.2143 46.3658 61.4226 46.4491C61.6257 46.5325 61.808 46.6575 61.9695 46.8137C62.1257 46.9752 62.2455 47.1575 62.3341 47.3606C62.4174 47.5689 62.4591 47.7825 62.4591 48.0064C62.4591 48.2304 62.4174 48.4439 62.3341 48.6523C62.2455 48.8554 62.1257 49.0377 61.9643 49.1991C61.808 49.3554 61.6257 49.4752 61.4174 49.5637C61.2143 49.6471 60.9955 49.6887 60.7768 49.6887C60.5528 49.6887 60.3341 49.6471 60.1309 49.5585C59.9226 49.4752 59.7403 49.3502 59.5841 49.1939C59.4278 49.0377 59.3028 48.8554 59.2195 48.6471C59.1361 48.4387 59.0945 48.2252 59.0945 48.0012C59.0945 47.7773 59.1361 47.5637 59.2247 47.3606C59.308 47.1523 59.433 46.97 59.5893 46.8137C59.7455 46.6575 59.9278 46.5377 60.1361 46.4491C60.3393 46.3658 60.5528 46.3241 60.7768 46.3189Z" fill="#6D5BD0"/>
<path d="M139.01 18.3044H142.301V18.6169C142.218 18.6169 142.062 18.7783 141.843 19.096C141.619 19.4033 141.51 20.1325 141.51 21.2835V39.6585C141.51 40.7835 141.619 41.5127 141.843 41.846C142.062 42.169 142.218 42.3252 142.301 42.3252V42.6377H138.218V42.3252C138.327 42.3252 138.489 42.169 138.697 41.846C138.906 41.5127 139.01 40.7835 139.01 39.6585V19.0335L128.614 40.596L129.593 42.6377H126.843L116.76 21.6585V36.9502C116.76 38.5752 116.911 39.8825 117.218 40.8669C117.536 41.8408 117.822 42.3252 118.072 42.3252V42.6377H115.135V42.3252C115.385 42.3252 115.661 41.8408 115.968 40.8669C116.286 39.8825 116.447 38.5752 116.447 36.9502V21.0335L115.135 18.3044H117.864L128.447 40.2419L139.01 18.3044Z" fill="#6D5BD0"/>
<path d="M159.572 38.9294L159.281 38.096C158.932 37.0856 158.437 36.1169 157.801 35.2002C157.176 34.2731 156.411 33.4919 155.51 32.8669C154.604 32.2419 153.593 31.8773 152.468 31.7627C151.843 31.7106 151.166 31.7835 150.447 31.9919C149.739 32.2002 149.249 32.6377 148.989 33.3044L147.301 38.3669C146.369 41.0075 146.374 42.3252 147.322 42.3252V42.6377H144.385V42.3252C144.635 42.3252 144.994 42.044 145.468 41.471C145.937 40.8877 146.447 39.82 146.989 38.2627L153.156 20.2002L152.489 18.3044H155.135L161.76 37.6169C162.218 38.9085 162.645 40.0231 163.051 40.9502C163.452 41.8669 163.781 42.3252 164.031 42.3252V42.6377H159.989V42.3252C160.098 42.3252 160.135 42.0075 160.093 41.3669C160.062 40.7158 159.89 39.9033 159.572 38.9294ZM153.322 20.7002L149.385 32.2627C149.77 31.9033 150.249 31.6742 150.822 31.5752C151.406 31.4658 151.952 31.4294 152.468 31.471C153.76 31.596 154.911 32.044 155.926 32.8044C156.937 33.5544 157.77 34.4658 158.426 35.5335L153.322 20.7002Z" fill="#6D5BD0"/>
<path d="M176.031 29.221L180.948 37.7419C181.708 39.0492 182.369 40.1377 182.927 41.0127C183.479 41.8877 183.885 42.3252 184.135 42.3252V42.6377H180.093V42.3252C180.218 42.3252 180.156 41.971 179.906 41.2627C179.656 40.544 179.203 39.6273 178.552 38.5127L173.281 29.3877H169.364V39.6585C169.364 40.7835 169.474 41.5127 169.698 41.846C169.916 42.169 170.078 42.3252 170.177 42.3252V42.6377H166.114V42.3252C166.224 42.3252 166.385 42.169 166.593 41.846C166.802 41.5127 166.906 40.7835 166.906 39.6585V21.2835C166.906 20.1325 166.802 19.4033 166.593 19.096C166.385 18.7783 166.224 18.6169 166.114 18.6169V18.3044H166.427C167.437 18.2783 168.51 18.2106 169.635 18.096C170.771 17.9867 171.843 17.9294 172.843 17.9294C175.187 17.9294 177.052 18.1794 178.427 18.6794C179.802 19.169 180.781 19.8408 181.364 20.7002C181.958 21.5492 182.26 22.544 182.26 23.6794C182.26 25.07 181.791 26.2627 180.864 27.2627C179.932 28.2523 178.323 28.9033 176.031 29.221ZM169.364 18.4085V29.1169H172.843C173.604 29.1169 174.39 29.0335 175.198 28.8669C176 28.6898 176.76 28.3981 177.468 27.9919C178.177 27.5908 178.744 27.0335 179.177 26.3252C179.619 25.6169 179.843 24.7367 179.843 23.6794C179.843 22.596 179.619 21.7002 179.177 20.9919C178.744 20.2835 178.177 19.7315 177.468 19.3252C176.76 18.9242 176 18.6377 175.198 18.471C174.39 18.294 173.604 18.2002 172.843 18.2002C172.302 18.2002 171.739 18.2315 171.156 18.2835C170.573 18.3252 169.974 18.3669 169.364 18.4085Z" fill="#6D5BD0"/>
<path d="M190.298 18.3044V18.6169C190.184 18.6169 190.017 18.7783 189.798 19.096C189.574 19.4033 189.465 20.1325 189.465 21.2835V39.6585C189.465 40.7835 189.574 41.5127 189.798 41.846C190.017 42.169 190.184 42.3252 190.298 42.3252V42.6377H186.215V42.3252C186.324 42.3252 186.486 42.169 186.694 41.846C186.902 41.5127 187.007 40.7835 187.007 39.6585V21.2835C187.007 20.1325 186.902 19.4033 186.694 19.096C186.486 18.7783 186.324 18.6169 186.215 18.6169V18.3044H190.298Z" fill="#6D5BD0"/>
<path d="M207.571 38.9294L207.28 38.096C206.931 37.0856 206.436 36.1169 205.8 35.2002C205.175 34.2731 204.41 33.4919 203.509 32.8669C202.603 32.2419 201.592 31.8773 200.467 31.7627C199.842 31.7106 199.165 31.7835 198.446 31.9919C197.738 32.2002 197.248 32.6377 196.988 33.3044L195.3 38.3669C194.368 41.0075 194.373 42.3252 195.321 42.3252V42.6377H192.384V42.3252C192.634 42.3252 192.993 42.044 193.467 41.471C193.936 40.8877 194.446 39.82 194.988 38.2627L201.155 20.2002L200.488 18.3044H203.134L209.759 37.6169C210.217 38.9085 210.644 40.0231 211.05 40.9502C211.451 41.8669 211.78 42.3252 212.03 42.3252V42.6377H207.988V42.3252C208.097 42.3252 208.134 42.0075 208.092 41.3669C208.061 40.7158 207.889 39.9033 207.571 38.9294ZM201.321 20.7002L197.384 32.2627C197.769 31.9033 198.248 31.6742 198.821 31.5752C199.405 31.4658 199.951 31.4294 200.467 31.471C201.759 31.596 202.91 32.044 203.925 32.8044C204.936 33.5544 205.769 34.4658 206.425 35.5335L201.321 20.7002Z" fill="#6D5BD0"/>
<path d="M233.738 23.9502V39.2002L236.447 42.6377H233.28L216.717 21.596V36.9502C216.717 38.5752 216.868 39.8825 217.176 40.8669C217.493 41.8408 217.78 42.3252 218.03 42.3252V42.6377H215.092V42.3252C215.342 42.3252 215.618 41.8408 215.926 40.8669C216.243 39.8825 216.405 38.5752 216.405 36.9502V21.221L214.113 18.3044H217.259L233.426 38.8252V23.9502C233.426 22.3408 233.264 21.0492 232.947 20.0752C232.639 19.1065 232.363 18.6169 232.113 18.6169V18.3044H235.051V18.6169C234.801 18.6169 234.514 19.1065 234.197 20.0752C233.889 21.0492 233.738 22.3408 233.738 23.9502Z" fill="#6D5BD0"/>
<path d="M253.699 38.9294L253.408 38.096C253.059 37.0856 252.564 36.1169 251.928 35.2002C251.303 34.2731 250.538 33.4919 249.637 32.8669C248.73 32.2419 247.72 31.8773 246.595 31.7627C245.97 31.7106 245.293 31.7835 244.574 31.9919C243.866 32.2002 243.376 32.6377 243.116 33.3044L241.428 38.3669C240.496 41.0075 240.501 42.3252 241.449 42.3252V42.6377H238.512V42.3252C238.762 42.3252 239.121 42.044 239.595 41.471C240.064 40.8877 240.574 39.82 241.116 38.2627L247.283 20.2002L246.616 18.3044H249.262L255.887 37.6169C256.345 38.9085 256.772 40.0231 257.178 40.9502C257.579 41.8669 257.908 42.3252 258.158 42.3252V42.6377H254.116V42.3252C254.225 42.3252 254.262 42.0075 254.22 41.3669C254.189 40.7158 254.017 39.9033 253.699 38.9294ZM247.449 20.7002L243.512 32.2627C243.897 31.9033 244.376 31.6742 244.949 31.5752C245.533 31.4658 246.079 31.4294 246.595 31.471C247.887 31.596 249.038 32.044 250.053 32.8044C251.064 33.5544 251.897 34.4658 252.553 35.5335L247.449 20.7002Z" fill="#6D5BD0"/>
<path d="M277.949 42.9085C276.376 42.9085 274.918 42.6169 273.574 42.0335C272.241 41.4398 271.084 40.7158 270.116 39.8669C269.142 39.0075 268.428 38.1898 267.97 37.4085L268.803 34.3252H269.074C269.074 34.3252 269.209 34.6065 269.491 35.1585C269.767 35.7158 270.162 36.4085 270.678 37.2419C271.204 38.0648 271.829 38.8877 272.553 39.721C273.287 40.5544 274.105 41.2523 275.011 41.8044C275.912 42.3617 276.892 42.6377 277.949 42.6377C278.334 42.6377 278.829 42.57 279.428 42.4294C280.037 42.294 280.657 42.0544 281.282 41.721C281.907 41.3877 282.428 40.9398 282.845 40.3669C283.261 39.7992 283.47 39.096 283.47 38.2627C283.47 37.1377 283.126 36.1533 282.449 35.3044C281.767 34.445 280.907 33.7002 279.866 33.0752C278.834 32.4502 277.793 31.9502 276.741 31.5752C275.532 31.1481 274.397 30.6117 273.345 29.971C272.303 29.3356 271.449 28.5492 270.782 27.6169C270.126 26.6742 269.803 25.5544 269.803 24.2627C269.803 23.0023 270.121 21.9033 270.761 20.971C271.397 20.0283 272.246 19.2992 273.303 18.7835C274.371 18.2575 275.532 17.9919 276.782 17.9919C278.35 17.9919 279.647 18.2002 280.678 18.6169C281.704 19.0335 282.553 19.5856 283.22 20.2627C283.886 20.945 284.438 21.6898 284.886 22.4919L284.053 25.5544H283.741C283.741 25.5544 283.662 25.3148 283.511 24.8252C283.355 24.3408 283.121 23.7367 282.803 23.0127C282.48 22.2783 282.053 21.5544 281.511 20.846C280.97 20.1273 280.308 19.5231 279.532 19.0335C278.751 18.5492 277.834 18.3044 276.782 18.3044C276.407 18.3044 275.907 18.3773 275.282 18.5127C274.657 18.6533 274.037 18.8877 273.428 19.221C272.813 19.5544 272.293 20.0075 271.866 20.5752C271.433 21.1481 271.22 21.846 271.22 22.6794C271.22 23.7783 271.558 24.7627 272.241 25.6377C272.933 26.5023 273.793 27.2367 274.824 27.846C275.866 28.445 276.918 28.9398 277.991 29.3252C279.183 29.7419 280.308 30.2783 281.366 30.9294C282.418 31.57 283.272 32.3565 283.928 33.2835C284.595 34.2002 284.928 35.32 284.928 36.6377C284.928 37.919 284.6 39.0231 283.949 39.9502C283.293 40.8825 282.438 41.6117 281.386 42.1377C280.345 42.6481 279.199 42.9085 277.949 42.9085Z" fill="#6D5BD0"/>
<path d="M291.078 18.3044V18.6169C290.964 18.6169 290.797 18.7783 290.578 19.096C290.354 19.4033 290.245 20.1325 290.245 21.2835V39.6585C290.245 40.7835 290.354 41.5127 290.578 41.846C290.797 42.169 290.964 42.3252 291.078 42.3252V42.6377H286.995V42.3252C287.104 42.3252 287.266 42.169 287.474 41.846C287.683 41.5127 287.787 40.7835 287.787 39.6585V21.2835C287.787 20.1325 287.683 19.4033 287.474 19.096C287.266 18.7783 287.104 18.6169 286.995 18.6169V18.3044H291.078Z" fill="#6D5BD0"/>
<path d="M297.247 18.3461V18.6586C297.164 18.6586 297.008 18.8148 296.789 19.1169C296.565 19.4242 296.456 20.1586 296.456 21.3252V42.3252H300.372C302.107 42.1482 303.529 41.8357 304.643 41.3877C305.753 40.9294 306.836 40.3773 307.893 39.7211H308.206V42.6794H305.227L304.331 42.6377H293.164V42.3252C293.273 42.3252 293.435 42.169 293.643 41.8461C293.852 41.5127 293.956 40.7836 293.956 39.6586V21.3252C293.956 20.1586 293.852 19.4242 293.643 19.1169C293.435 18.8148 293.273 18.6586 293.164 18.6586V18.3461H297.247Z" fill="#6D5BD0"/>
<path d="M327.034 18.6169V18.3044H329.972V18.6169C329.722 18.6169 329.357 18.8981 328.888 19.4502C328.414 20.0075 327.909 21.07 327.368 22.6377L321.159 40.7002L321.826 42.6377H319.222L312.597 23.3252C312.164 22.0075 311.743 20.8981 311.326 19.9919C310.909 19.0752 310.56 18.6169 310.284 18.6169V18.3044H314.368V18.6169C314.227 18.6169 314.18 18.945 314.222 19.596C314.274 20.2367 314.456 21.0283 314.763 21.971L321.034 40.2419L327.055 22.5752C327.956 19.9398 327.951 18.6169 327.034 18.6169Z" fill="#6D5BD0"/>
<path d="M347.236 38.9294L346.945 38.096C346.596 37.0856 346.101 36.1169 345.465 35.2002C344.84 34.2731 344.075 33.4919 343.174 32.8669C342.268 32.2419 341.257 31.8773 340.132 31.7627C339.507 31.7106 338.83 31.7835 338.111 31.9919C337.403 32.2002 336.913 32.6377 336.653 33.3044L334.965 38.3669C334.033 41.0075 334.038 42.3252 334.986 42.3252V42.6377H332.049V42.3252C332.299 42.3252 332.658 42.044 333.132 41.471C333.601 40.8877 334.111 39.82 334.653 38.2627L340.82 20.2002L340.153 18.3044H342.799L349.424 37.6169C349.882 38.9085 350.309 40.0231 350.715 40.9502C351.117 41.8669 351.445 42.3252 351.695 42.3252V42.6377H347.653V42.3252C347.762 42.3252 347.799 42.0075 347.757 41.3669C347.726 40.7158 347.554 39.9033 347.236 38.9294ZM340.986 20.7002L337.049 32.2627C337.434 31.9033 337.913 31.6742 338.486 31.5752C339.07 31.4658 339.617 31.4294 340.132 31.471C341.424 31.596 342.575 32.044 343.59 32.8044C344.601 33.5544 345.434 34.4658 346.09 35.5335L340.986 20.7002Z" fill="#6D5BD0"/>
<path d="M183.61 55.9944C184.011 55.9006 184.449 55.8381 184.923 55.8069C185.392 55.7652 185.86 55.7444 186.319 55.7444C186.803 55.7444 187.298 55.7965 187.798 55.8902C188.308 55.9892 188.777 56.1715 189.194 56.4319C189.61 56.6819 189.949 57.0308 190.215 57.4736C190.475 57.9215 190.61 58.4892 190.61 59.1819C190.61 59.8798 190.485 60.4631 190.235 60.9319C189.996 61.3902 189.673 61.7652 189.256 62.0569C188.85 62.3486 188.386 62.5673 187.86 62.7027C187.345 62.8277 186.808 62.8902 186.256 62.8902C186.199 62.8902 186.11 62.8902 185.985 62.8902C185.86 62.8902 185.725 62.8902 185.59 62.8902C185.465 62.8798 185.34 62.8642 185.215 62.8486C185.09 62.8381 184.996 62.8277 184.944 62.8277V67.0777H183.61V55.9944ZM186.36 56.9111C186.079 56.9111 185.808 56.9215 185.548 56.9319C185.298 56.9319 185.095 56.9527 184.944 56.9944V61.6402C184.996 61.6558 185.079 61.6715 185.194 61.6819C185.319 61.6819 185.444 61.6923 185.569 61.7027C185.694 61.7027 185.808 61.7027 185.923 61.7027C186.048 61.7027 186.136 61.7027 186.194 61.7027C186.553 61.7027 186.907 61.6715 187.256 61.5986C187.616 61.5308 187.944 61.4058 188.235 61.2236C188.527 61.0465 188.756 60.7861 188.923 60.4527C189.1 60.1194 189.194 59.6975 189.194 59.1819C189.194 58.7548 189.11 58.3902 188.944 58.0986C188.787 57.8069 188.574 57.5725 188.298 57.3902C188.017 57.2131 187.704 57.0881 187.36 57.0152C187.027 56.9475 186.694 56.9111 186.36 56.9111Z" fill="#525F73" fill-opacity="0.4"/>
<path d="M201.265 64.2236C201.265 63.7808 201.129 63.4215 200.869 63.1402C200.603 62.8486 200.27 62.5986 199.869 62.3902C199.463 62.1715 199.025 61.9631 198.556 61.7652C198.082 61.5725 197.645 61.3433 197.244 61.0777C196.853 60.8017 196.52 60.4631 196.244 60.0569C195.978 59.6558 195.848 59.1506 195.848 58.5361C195.848 57.6611 196.15 56.9683 196.765 56.4527C197.374 55.9423 198.244 55.6819 199.369 55.6819C200.004 55.6819 200.588 55.734 201.119 55.8277C201.66 55.9267 202.082 56.0517 202.39 56.2027L201.994 57.3694C201.744 57.2444 201.379 57.135 200.91 57.0361C200.437 56.9267 199.9 56.8694 199.306 56.8694C198.598 56.8694 198.062 57.0308 197.702 57.3486C197.353 57.6558 197.181 58.0256 197.181 58.4527C197.181 58.8694 197.312 59.2183 197.577 59.4944C197.853 59.7756 198.187 60.0256 198.577 60.2444C198.978 60.4527 199.416 60.6715 199.89 60.8902C200.358 61.0986 200.791 61.3486 201.181 61.6402C201.582 61.9215 201.916 62.26 202.181 62.6611C202.457 63.0517 202.598 63.5361 202.598 64.1194C202.598 64.5933 202.504 65.0256 202.327 65.4111C202.16 65.8017 201.91 66.135 201.577 66.4111C201.254 66.6923 200.858 66.9058 200.39 67.0569C199.916 67.1923 199.379 67.2652 198.785 67.2652C197.978 67.2652 197.312 67.2027 196.785 67.0777C196.27 66.9683 195.869 66.8381 195.577 66.6819L196.035 65.4736C196.27 65.6142 196.629 65.7548 197.119 65.8902C197.603 66.0152 198.145 66.0777 198.744 66.0777C199.088 66.0777 199.416 66.0465 199.723 65.9736C200.041 65.9058 200.312 65.7965 200.535 65.6402C200.754 65.4892 200.931 65.2965 201.056 65.0569C201.192 64.8225 201.265 64.5465 201.265 64.2236Z" fill="#525F73" fill-opacity="0.4"/>
<path d="M208.659 55.8694H209.993V67.0777H208.659V55.8694Z" fill="#525F73" fill-opacity="0.4"/>
<path d="M223.817 66.6194C223.494 66.859 223.093 67.0256 222.609 67.1194C222.119 67.2131 221.599 67.2652 221.047 67.2652C220.364 67.2652 219.734 67.1506 219.151 66.9319C218.567 66.6975 218.052 66.3486 217.609 65.8902C217.177 65.4215 216.828 64.8173 216.567 64.0777C216.317 63.3433 216.192 62.4736 216.192 61.4736C216.192 60.4319 216.328 59.5517 216.609 58.8277C216.901 58.0933 217.276 57.4944 217.734 57.0361C218.203 56.5673 218.724 56.2236 219.297 56.0152C219.864 55.7965 220.448 55.6819 221.047 55.6819C221.698 55.6819 222.224 55.7183 222.63 55.7861C223.031 55.859 223.38 55.9527 223.672 56.0777L223.338 57.2444C222.823 56.9944 222.093 56.8694 221.151 56.8694C220.718 56.8694 220.286 56.9527 219.859 57.1194C219.427 57.2756 219.047 57.5308 218.713 57.8902C218.38 58.2548 218.109 58.734 217.901 59.3277C217.703 59.9111 217.609 60.6298 217.609 61.4736C217.609 62.2392 217.698 62.9111 217.88 63.4944C218.073 64.0673 218.338 64.5465 218.672 64.9319C219.015 65.3225 219.411 65.6142 219.859 65.8069C220.317 65.9892 220.807 66.0777 221.338 66.0777C221.823 66.0777 222.239 66.0361 222.588 65.9527C222.948 65.859 223.255 65.734 223.505 65.5777L223.817 66.6194Z" fill="#525F73" fill-opacity="0.4"/>
<path d="M228.977 61.4736C228.977 59.6142 229.372 58.1819 230.164 57.1819C230.956 56.1819 232.081 55.6819 233.539 55.6819C234.331 55.6819 235.008 55.8225 235.581 56.0986C236.164 56.3798 236.643 56.7757 237.018 57.2861C237.393 57.7861 237.669 58.3902 237.852 59.0986C238.029 59.8069 238.122 60.5986 238.122 61.4736C238.122 63.3486 237.727 64.7861 236.935 65.7861C236.143 66.7757 235.008 67.2652 233.539 67.2652C232.758 67.2652 232.086 67.1246 231.518 66.8486C230.945 66.5725 230.466 66.1819 230.081 65.6819C229.706 65.1715 229.424 64.5569 229.247 63.8486C229.065 63.1402 228.977 62.3486 228.977 61.4736ZM230.393 61.4736C230.393 62.0986 230.445 62.6923 230.56 63.2444C230.685 63.8017 230.872 64.2861 231.122 64.7027C231.383 65.1194 231.716 65.4527 232.122 65.7027C232.523 65.9527 232.997 66.0777 233.539 66.0777C234.523 66.0777 235.299 65.7027 235.872 64.9527C236.44 64.2027 236.727 63.0465 236.727 61.4736C236.727 60.8642 236.664 60.2809 236.539 59.7236C236.414 59.1715 236.216 58.6819 235.956 58.2652C235.69 57.8382 235.357 57.4944 234.956 57.2444C234.565 56.9944 234.091 56.8694 233.539 56.8694C232.549 56.8694 231.779 57.2444 231.227 57.9944C230.669 58.7444 230.393 59.9059 230.393 61.4736ZM234.727 53.1611H236.539V53.4944L233.935 55.0361H232.831L234.727 53.1611Z" fill="#525F73" fill-opacity="0.4"/>
<path d="M250.651 67.0777H244.026V55.8694H245.36V65.8902H250.651V67.0777Z" fill="#525F73" fill-opacity="0.4"/>
<path d="M255.488 61.4736C255.488 59.6142 255.884 58.1819 256.676 57.1819C257.467 56.1819 258.592 55.6819 260.051 55.6819C260.842 55.6819 261.52 55.8225 262.092 56.0986C262.676 56.3798 263.155 56.7756 263.53 57.2861C263.905 57.7861 264.181 58.3902 264.363 59.0986C264.54 59.8069 264.634 60.5986 264.634 61.4736C264.634 63.3486 264.238 64.7861 263.447 65.7861C262.655 66.7756 261.52 67.2652 260.051 67.2652C259.27 67.2652 258.598 67.1246 258.03 66.8486C257.457 66.5725 256.978 66.1819 256.592 65.6819C256.217 65.1715 255.936 64.5569 255.759 63.8486C255.577 63.1402 255.488 62.3486 255.488 61.4736ZM256.905 61.4736C256.905 62.0986 256.957 62.6923 257.072 63.2444C257.197 63.8017 257.384 64.2861 257.634 64.7027C257.895 65.1194 258.228 65.4527 258.634 65.7027C259.035 65.9527 259.509 66.0777 260.051 66.0777C261.035 66.0777 261.811 65.7027 262.384 64.9527C262.952 64.2027 263.238 63.0465 263.238 61.4736C263.238 60.8642 263.176 60.2808 263.051 59.7236C262.926 59.1715 262.728 58.6819 262.467 58.2652C262.202 57.8381 261.868 57.4944 261.467 57.2444C261.077 56.9944 260.603 56.8694 260.051 56.8694C259.061 56.8694 258.29 57.2444 257.738 57.9944C257.181 58.7444 256.905 59.9058 256.905 61.4736Z" fill="#525F73" fill-opacity="0.4"/>
<path d="M274.33 61.4944H278.08V66.4319C277.913 66.5569 277.705 66.6767 277.455 66.7861C277.215 66.885 276.96 66.9736 276.684 67.0569C276.419 67.1246 276.143 67.1715 275.851 67.2027C275.559 67.2444 275.273 67.2652 274.997 67.2652C274.273 67.2652 273.611 67.1506 273.018 66.9319C272.419 66.6975 271.898 66.3433 271.455 65.8694C271.023 65.4006 270.684 64.8017 270.434 64.0777C270.195 63.3433 270.08 62.4736 270.08 61.4736C270.08 60.4475 270.226 59.5673 270.518 58.8277C270.82 58.0933 271.21 57.4944 271.684 57.0361C272.169 56.5673 272.71 56.2236 273.309 56.0152C273.903 55.7965 274.502 55.6819 275.101 55.6819C275.736 55.6819 276.268 55.7183 276.684 55.7861C277.101 55.859 277.455 55.9527 277.747 56.0777L277.413 57.2444C276.898 56.9944 276.169 56.8694 275.226 56.8694C274.768 56.8694 274.314 56.9475 273.872 57.0986C273.439 57.2548 273.044 57.5152 272.684 57.8902C272.335 58.2548 272.049 58.7236 271.83 59.3069C271.606 59.8902 271.497 60.6142 271.497 61.4736C271.497 62.2652 271.585 62.9527 271.768 63.5361C271.945 64.109 272.195 64.5881 272.518 64.9736C272.851 65.3486 273.247 65.6298 273.705 65.8069C274.163 65.9892 274.663 66.0777 275.205 66.0777C275.882 66.0777 276.46 65.9475 276.934 65.6819V62.5569L274.33 62.2444V61.4944Z" fill="#525F73" fill-opacity="0.4"/>
<path d="M289.313 63.9736H285.188L284.063 67.0778H282.75L287 55.7028H287.604L291.854 67.0778H290.458L289.313 63.9736ZM285.625 62.8278H288.917L287.667 59.4111L287.271 57.7236H287.25L286.854 59.4528L285.625 62.8278Z" fill="#525F73" fill-opacity="0.4"/>
<path d="M183.61 55.9944C184.011 55.9006 184.449 55.8381 184.923 55.8069C185.392 55.7652 185.86 55.7444 186.319 55.7444C186.803 55.7444 187.298 55.7965 187.798 55.8902C188.308 55.9892 188.777 56.1715 189.194 56.4319C189.61 56.6819 189.949 57.0308 190.215 57.4736C190.475 57.9215 190.61 58.4892 190.61 59.1819C190.61 59.8798 190.485 60.4631 190.235 60.9319C189.996 61.3902 189.673 61.7652 189.256 62.0569C188.85 62.3486 188.386 62.5673 187.86 62.7027C187.345 62.8277 186.808 62.8902 186.256 62.8902C186.199 62.8902 186.11 62.8902 185.985 62.8902C185.86 62.8902 185.725 62.8902 185.59 62.8902C185.465 62.8798 185.34 62.8642 185.215 62.8486C185.09 62.8381 184.996 62.8277 184.944 62.8277V67.0777H183.61V55.9944ZM186.36 56.9111C186.079 56.9111 185.808 56.9215 185.548 56.9319C185.298 56.9319 185.095 56.9527 184.944 56.9944V61.6402C184.996 61.6558 185.079 61.6715 185.194 61.6819C185.319 61.6819 185.444 61.6923 185.569 61.7027C185.694 61.7027 185.808 61.7027 185.923 61.7027C186.048 61.7027 186.136 61.7027 186.194 61.7027C186.553 61.7027 186.907 61.6715 187.256 61.5986C187.616 61.5308 187.944 61.4058 188.235 61.2236C188.527 61.0465 188.756 60.7861 188.923 60.4527C189.1 60.1194 189.194 59.6975 189.194 59.1819C189.194 58.7548 189.11 58.3902 188.944 58.0986C188.787 57.8069 188.574 57.5725 188.298 57.3902C188.017 57.2131 187.704 57.0881 187.36 57.0152C187.027 56.9475 186.694 56.9111 186.36 56.9111Z" fill="#6D5BD0"/>
<path d="M201.265 64.2236C201.265 63.7808 201.129 63.4215 200.869 63.1402C200.603 62.8486 200.27 62.5986 199.869 62.3902C199.463 62.1715 199.025 61.9631 198.556 61.7652C198.082 61.5725 197.645 61.3433 197.244 61.0777C196.853 60.8017 196.52 60.4631 196.244 60.0569C195.978 59.6558 195.848 59.1506 195.848 58.5361C195.848 57.6611 196.15 56.9683 196.765 56.4527C197.374 55.9423 198.244 55.6819 199.369 55.6819C200.004 55.6819 200.588 55.734 201.119 55.8277C201.66 55.9267 202.082 56.0517 202.39 56.2027L201.994 57.3694C201.744 57.2444 201.379 57.135 200.91 57.0361C200.437 56.9267 199.9 56.8694 199.306 56.8694C198.598 56.8694 198.062 57.0308 197.702 57.3486C197.353 57.6558 197.181 58.0256 197.181 58.4527C197.181 58.8694 197.312 59.2183 197.577 59.4944C197.853 59.7756 198.187 60.0256 198.577 60.2444C198.978 60.4527 199.416 60.6715 199.89 60.8902C200.358 61.0986 200.791 61.3486 201.181 61.6402C201.582 61.9215 201.916 62.26 202.181 62.6611C202.457 63.0517 202.598 63.5361 202.598 64.1194C202.598 64.5933 202.504 65.0256 202.327 65.4111C202.16 65.8017 201.91 66.135 201.577 66.4111C201.254 66.6923 200.858 66.9058 200.39 67.0569C199.916 67.1923 199.379 67.2652 198.785 67.2652C197.978 67.2652 197.312 67.2027 196.785 67.0777C196.27 66.9683 195.869 66.8381 195.577 66.6819L196.035 65.4736C196.27 65.6142 196.629 65.7548 197.119 65.8902C197.603 66.0152 198.145 66.0777 198.744 66.0777C199.088 66.0777 199.416 66.0465 199.723 65.9736C200.041 65.9058 200.312 65.7965 200.535 65.6402C200.754 65.4892 200.931 65.2965 201.056 65.0569C201.192 64.8225 201.265 64.5465 201.265 64.2236Z" fill="#6D5BD0"/>
<path d="M208.659 55.8694H209.993V67.0777H208.659V55.8694Z" fill="#6D5BD0"/>
<path d="M223.817 66.6194C223.494 66.859 223.093 67.0256 222.609 67.1194C222.119 67.2131 221.599 67.2652 221.047 67.2652C220.364 67.2652 219.734 67.1506 219.151 66.9319C218.567 66.6975 218.052 66.3486 217.609 65.8902C217.177 65.4215 216.828 64.8173 216.567 64.0777C216.317 63.3433 216.192 62.4736 216.192 61.4736C216.192 60.4319 216.328 59.5517 216.609 58.8277C216.901 58.0933 217.276 57.4944 217.734 57.0361C218.203 56.5673 218.724 56.2236 219.297 56.0152C219.864 55.7965 220.448 55.6819 221.047 55.6819C221.698 55.6819 222.224 55.7183 222.63 55.7861C223.031 55.859 223.38 55.9527 223.672 56.0777L223.338 57.2444C222.823 56.9944 222.093 56.8694 221.151 56.8694C220.718 56.8694 220.286 56.9527 219.859 57.1194C219.427 57.2756 219.047 57.5308 218.713 57.8902C218.38 58.2548 218.109 58.734 217.901 59.3277C217.703 59.9111 217.609 60.6298 217.609 61.4736C217.609 62.2392 217.698 62.9111 217.88 63.4944C218.073 64.0673 218.338 64.5465 218.672 64.9319C219.015 65.3225 219.411 65.6142 219.859 65.8069C220.317 65.9892 220.807 66.0777 221.338 66.0777C221.823 66.0777 222.239 66.0361 222.588 65.9527C222.948 65.859 223.255 65.734 223.505 65.5777L223.817 66.6194Z" fill="#6D5BD0"/>
<path d="M228.977 61.4736C228.977 59.6142 229.372 58.1819 230.164 57.1819C230.956 56.1819 232.081 55.6819 233.539 55.6819C234.331 55.6819 235.008 55.8225 235.581 56.0986C236.164 56.3798 236.643 56.7757 237.018 57.2861C237.393 57.7861 237.669 58.3902 237.852 59.0986C238.029 59.8069 238.122 60.5986 238.122 61.4736C238.122 63.3486 237.727 64.7861 236.935 65.7861C236.143 66.7757 235.008 67.2652 233.539 67.2652C232.758 67.2652 232.086 67.1246 231.518 66.8486C230.945 66.5725 230.466 66.1819 230.081 65.6819C229.706 65.1715 229.424 64.5569 229.247 63.8486C229.065 63.1402 228.977 62.3486 228.977 61.4736ZM230.393 61.4736C230.393 62.0986 230.445 62.6923 230.56 63.2444C230.685 63.8017 230.872 64.2861 231.122 64.7027C231.383 65.1194 231.716 65.4527 232.122 65.7027C232.523 65.9527 232.997 66.0777 233.539 66.0777C234.523 66.0777 235.299 65.7027 235.872 64.9527C236.44 64.2027 236.727 63.0465 236.727 61.4736C236.727 60.8642 236.664 60.2809 236.539 59.7236C236.414 59.1715 236.216 58.6819 235.956 58.2652C235.69 57.8382 235.357 57.4944 234.956 57.2444C234.565 56.9944 234.091 56.8694 233.539 56.8694C232.549 56.8694 231.779 57.2444 231.227 57.9944C230.669 58.7444 230.393 59.9059 230.393 61.4736ZM234.727 53.1611H236.539V53.4944L233.935 55.0361H232.831L234.727 53.1611Z" fill="#6D5BD0"/>
<path d="M250.651 67.0777H244.026V55.8694H245.36V65.8902H250.651V67.0777Z" fill="#6D5BD0"/>
<path d="M255.488 61.4736C255.488 59.6142 255.884 58.1819 256.676 57.1819C257.467 56.1819 258.592 55.6819 260.051 55.6819C260.842 55.6819 261.52 55.8225 262.092 56.0986C262.676 56.3798 263.155 56.7756 263.53 57.2861C263.905 57.7861 264.181 58.3902 264.363 59.0986C264.54 59.8069 264.634 60.5986 264.634 61.4736C264.634 63.3486 264.238 64.7861 263.447 65.7861C262.655 66.7756 261.52 67.2652 260.051 67.2652C259.27 67.2652 258.598 67.1246 258.03 66.8486C257.457 66.5725 256.978 66.1819 256.592 65.6819C256.217 65.1715 255.936 64.5569 255.759 63.8486C255.577 63.1402 255.488 62.3486 255.488 61.4736ZM256.905 61.4736C256.905 62.0986 256.957 62.6923 257.072 63.2444C257.197 63.8017 257.384 64.2861 257.634 64.7027C257.895 65.1194 258.228 65.4527 258.634 65.7027C259.035 65.9527 259.509 66.0777 260.051 66.0777C261.035 66.0777 261.811 65.7027 262.384 64.9527C262.952 64.2027 263.238 63.0465 263.238 61.4736C263.238 60.8642 263.176 60.2808 263.051 59.7236C262.926 59.1715 262.728 58.6819 262.467 58.2652C262.202 57.8381 261.868 57.4944 261.467 57.2444C261.077 56.9944 260.603 56.8694 260.051 56.8694C259.061 56.8694 258.29 57.2444 257.738 57.9944C257.181 58.7444 256.905 59.9058 256.905 61.4736Z" fill="#6D5BD0"/>
<path d="M274.33 61.4944H278.08V66.4319C277.913 66.5569 277.705 66.6767 277.455 66.7861C277.215 66.885 276.96 66.9736 276.684 67.0569C276.419 67.1246 276.143 67.1715 275.851 67.2027C275.559 67.2444 275.273 67.2652 274.997 67.2652C274.273 67.2652 273.611 67.1506 273.018 66.9319C272.419 66.6975 271.898 66.3433 271.455 65.8694C271.023 65.4006 270.684 64.8017 270.434 64.0777C270.195 63.3433 270.08 62.4736 270.08 61.4736C270.08 60.4475 270.226 59.5673 270.518 58.8277C270.82 58.0933 271.21 57.4944 271.684 57.0361C272.169 56.5673 272.71 56.2236 273.309 56.0152C273.903 55.7965 274.502 55.6819 275.101 55.6819C275.736 55.6819 276.268 55.7183 276.684 55.7861C277.101 55.859 277.455 55.9527 277.747 56.0777L277.413 57.2444C276.898 56.9944 276.169 56.8694 275.226 56.8694C274.768 56.8694 274.314 56.9475 273.872 57.0986C273.439 57.2548 273.044 57.5152 272.684 57.8902C272.335 58.2548 272.049 58.7236 271.83 59.3069C271.606 59.8902 271.497 60.6142 271.497 61.4736C271.497 62.2652 271.585 62.9527 271.768 63.5361C271.945 64.109 272.195 64.5881 272.518 64.9736C272.851 65.3486 273.247 65.6298 273.705 65.8069C274.163 65.9892 274.663 66.0777 275.205 66.0777C275.882 66.0777 276.46 65.9475 276.934 65.6819V62.5569L274.33 62.2444V61.4944Z" fill="#6D5BD0"/>
<path d="M289.313 63.9736H285.188L284.063 67.0778H282.75L287 55.7028H287.604L291.854 67.0778H290.458L289.313 63.9736ZM285.625 62.8278H288.917L287.667 59.4111L287.271 57.7236H287.25L286.854 59.4528L285.625 62.8278Z" fill="#6D5BD0"/>
</svg>
